<svg fill="--baseBackground" viewBox="0 0 128 128" xmlns="http://www.w3.org/2000/svg"><g fill="rgb(0,0,0)"><path d="m55.8325 9c-2.3241 0-4.4393 1.3423-5.4289 3.4452l-2.2133 4.7032c-.4703.9994-.0413 2.1909.9581 2.6612.9994.4704 2.1909.0414 2.6612-.958l2.2133-4.7032c.3299-.701 1.0349-1.1484 1.8096-1.1484h16.3349c.7748 0 1.4798.4474 1.8097 1.1484l2.2132 4.7032c.4704.9994 1.6618 1.4284 2.6613.958.9994-.4703 1.4283-1.6618.958-2.6612l-2.2132-4.7032c-.9897-2.1029-3.1048-3.4452-5.429-3.4452z"></path><path d="m54 59.5c0-1.1046-.8954-2-2-2s-2 .8954-2 2v39.5c0 1.105.8954 2 2 2s2-.895 2-2z"></path><path d="m66 59.5c0-1.1046-.8954-2-2-2s-2 .8954-2 2v39.5c0 1.105.8954 2 2 2s2-.895 2-2z"></path><path d="m78 59.5c0-1.1046-.8954-2-2-2s-2 .8954-2 2v39.5c0 1.105.8954 2 2 2s2-.895 2-2z"></path><path clip-rule="evenodd" d="m104 48h-3v64c0 4.418-3.5817 8-8 8h-57c-4.4183 0-8-3.582-8-8v-64h-4c-2.2091 0-4-1.7909-4-4v-15c0-4.4183 3.5817-8 8-8h72c4.418 0 8 3.5817 8 8v15c0 2.2091-1.791 4-4 4zm0-5c0 .5523-.448 1-1 1h-78c-.5523 0-1-.4477-1-1v-14c0-2.2091 1.7909-4 4-4h72c2.209 0 4 1.7909 4 4zm-72 5h65v64c0 2.209-1.7909 4-4 4h-57c-2.2091 0-4-1.791-4-4z" fill-rule="evenodd"></path></g></svg>