<svg width="60" height="60" viewBox="0 0 60 60" fill="none" xmlns="http://www.w3.org/2000/svg">
<path d="M16.991 10.5C16.8917 10.4998 16.7946 10.47 16.7123 10.4144C16.63 10.3588 16.5661 10.28 16.5287 10.1879C16.4914 10.0959 16.4823 9.99478 16.5027 9.89754C16.523 9.80031 16.5719 9.71135 16.643 9.642L18.732 7.613L16.28 9.023C16.1725 9.08356 16.0465 9.10227 15.9261 9.07552C15.8057 9.04877 15.6994 8.97845 15.6277 8.87808C15.556 8.77772 15.5239 8.65439 15.5376 8.5318C15.5513 8.40921 15.6099 8.29603 15.702 8.214L18.187 6.051L16.28 7.151C16.1812 7.20739 16.0661 7.22838 15.9537 7.2105C15.8413 7.19263 15.7384 7.13696 15.6619 7.05269C15.5855 6.96842 15.54 6.86059 15.5331 6.74701C15.5263 6.63343 15.5583 6.5209 15.624 6.428L16.924 4.621L16.285 4.989C16.1974 5.03945 16.0966 5.06217 15.9958 5.05414C15.895 5.04612 15.799 5.00774 15.7205 4.94406C15.642 4.88038 15.5846 4.79439 15.556 4.69744C15.5273 4.60049 15.5287 4.49713 15.56 4.401L15.775 3.745C15.7031 3.70177 15.6436 3.64083 15.602 3.568C15.5357 3.45316 15.5177 3.31669 15.5521 3.1886C15.5864 3.06051 15.6702 2.9513 15.785 2.885L16.285 2.597C16.3727 2.54604 16.4738 2.52297 16.575 2.53083C16.6761 2.5387 16.7724 2.57714 16.8512 2.64104C16.93 2.70495 16.9874 2.7913 17.016 2.88863C17.0445 2.98596 17.0428 3.08967 17.011 3.186L16.917 3.47L18.424 2.6C18.5228 2.54361 18.6379 2.52262 18.7503 2.54049C18.8627 2.55837 18.9656 2.61404 19.0421 2.69831C19.1185 2.78258 19.164 2.89041 19.1709 3.00398C19.1778 3.11756 19.1457 3.2301 19.08 3.323L17.785 5.128L22.17 2.6C22.2775 2.53943 22.4035 2.52073 22.5239 2.54748C22.6443 2.57423 22.7506 2.64455 22.8223 2.74491C22.894 2.84528 22.9261 2.96861 22.9124 3.0912C22.8987 3.21378 22.8401 3.32697 22.748 3.409L20.265 5.569L21.721 4.729C21.8265 4.6673 21.951 4.64641 22.0709 4.67027C22.1908 4.69413 22.2978 4.76109 22.3717 4.85849C22.4456 4.95588 22.4812 5.07697 22.4719 5.19886C22.4625 5.32075 22.4089 5.435 22.321 5.52L20.23 7.548L21.73 6.681C21.8327 6.62217 21.953 6.60171 22.0694 6.62324C22.1858 6.64478 22.2908 6.70692 22.3657 6.79861C22.4406 6.8903 22.4805 7.00559 22.4784 7.12395C22.4762 7.24232 22.4322 7.35608 22.354 7.445L21.835 8.029C21.9232 8.00035 22.0176 7.9968 22.1077 8.01874C22.1978 8.04068 22.2801 8.08725 22.3452 8.15324C22.4104 8.21923 22.4559 8.30204 22.4767 8.39241C22.4975 8.48279 22.4928 8.57717 22.463 8.665L22.263 9.265C22.332 9.30783 22.3891 9.36732 22.429 9.438C22.495 9.55275 22.5128 9.68898 22.4785 9.81682C22.4442 9.94467 22.3606 10.0537 22.246 10.12L21.746 10.41C21.658 10.4609 21.5566 10.4838 21.4552 10.4756C21.3539 10.4673 21.2575 10.4284 21.1788 10.364C21.1002 10.2996 21.043 10.2127 21.015 10.115C20.987 10.0173 20.9894 9.91331 21.022 9.817L21.094 9.606L19.681 10.421C19.5782 10.4805 19.4575 10.5014 19.3407 10.4799C19.2238 10.4585 19.1184 10.3962 19.0433 10.3042C18.9682 10.2121 18.9284 10.0963 18.9309 9.97756C18.9334 9.85879 18.9781 9.7448 19.057 9.656L19.557 9.099L17.245 10.433C17.168 10.4781 17.0802 10.5012 16.991 10.5Z" fill="#D8D8D8"/>
<path d="M32.3719 59.47C32.2649 59.4698 32.1607 59.4353 32.0747 59.3714C31.9887 59.3076 31.9255 59.2178 31.8944 59.1154C31.8633 59.0129 31.8659 58.9032 31.9018 58.8023C31.9377 58.7014 32.0051 58.6147 32.0939 58.555L33.1529 57.843L30.4529 59.402C30.3417 59.4654 30.2104 59.4838 30.0861 59.4533C29.9618 59.4228 29.8538 59.3458 29.7846 59.2381C29.7154 59.1304 29.6901 59.0002 29.714 58.8745C29.7378 58.7487 29.8091 58.6368 29.9129 58.562L33.9459 55.691L27.5169 59.4C27.4064 59.462 27.2765 59.4796 27.1534 59.4495C27.0304 59.4193 26.9234 59.3435 26.854 59.2375C26.7847 59.1314 26.7582 59.003 26.7799 58.8782C26.8016 58.7534 26.8699 58.6414 26.9709 58.565L31.8859 54.948L24.1739 59.4C24.0632 59.464 23.9322 59.4831 23.8078 59.4534C23.6834 59.4237 23.5751 59.3475 23.5052 59.2405C23.4353 59.1334 23.409 59.0036 23.4319 58.8778C23.4547 58.752 23.5249 58.6397 23.6279 58.564L28.4869 55L20.8609 59.4C20.7504 59.4634 20.6198 59.4821 20.4958 59.4524C20.3719 59.4227 20.264 59.3467 20.1942 59.2401C20.1243 59.1335 20.0978 59.0043 20.1201 58.8788C20.1424 58.7533 20.2117 58.6411 20.3139 58.565L25.3259 54.865L17.4609 59.4C17.3494 59.4601 17.2192 59.4756 17.0966 59.4434C16.9741 59.4112 16.8683 59.3337 16.8008 59.2265C16.7332 59.1193 16.7089 58.9904 16.7327 58.866C16.7564 58.7415 16.8266 58.6307 16.9289 58.556L19.2909 56.937L15.0229 59.4C14.9115 59.4609 14.781 59.4771 14.6581 59.4452C14.5351 59.4134 14.4289 59.336 14.3609 59.2287C14.293 59.1215 14.2684 58.9923 14.2921 58.8676C14.3159 58.7428 14.3863 58.6318 14.4889 58.557L17.3329 56.59L12.4649 59.4C12.354 59.4637 12.2228 59.4824 12.0985 59.4523C11.9741 59.4222 11.866 59.3456 11.7965 59.2382C11.7269 59.1309 11.7011 59.0009 11.7245 58.8751C11.7478 58.7493 11.8185 58.6373 11.9219 58.562L16.4109 55.314L10.2649 58.863C10.153 58.926 10.0211 58.9434 9.89664 58.9118C9.77217 58.8801 9.66464 58.8018 9.59636 58.693C9.52809 58.5842 9.50429 58.4533 9.5299 58.3275C9.55552 58.2016 9.62858 58.0905 9.73395 58.017L10.4739 57.517L9.36895 58.153C9.25897 58.2165 9.12893 58.2358 9.00524 58.207C8.88156 58.1781 8.77349 58.1033 8.70297 57.9976C8.63246 57.892 8.6048 57.7635 8.62559 57.6382C8.64639 57.5129 8.71409 57.4002 8.81494 57.323L12.7149 54.348L8.52095 56.772C8.41124 56.8346 8.28189 56.8534 8.15891 56.8245C8.03593 56.7957 7.92843 56.7214 7.85801 56.6165C7.78759 56.5116 7.75947 56.384 7.77931 56.2592C7.79915 56.1345 7.86547 56.0219 7.96495 55.944L10.2849 54.144L8.27994 55.305C8.17081 55.3681 8.04186 55.3877 7.91892 55.3598C7.79597 55.3319 7.68811 55.2586 7.61693 55.1545C7.54575 55.0504 7.5165 54.9233 7.53505 54.7986C7.55359 54.6739 7.61856 54.5608 7.71695 54.482L8.69994 53.69L8.27994 53.933C8.18082 53.9902 8.0651 54.0116 7.95209 53.9937C7.83909 53.9758 7.73563 53.9197 7.65899 53.8348C7.58235 53.7498 7.53716 53.6412 7.53096 53.5269C7.52477 53.4127 7.55794 53.2998 7.62495 53.207L8.76495 51.63L8.27994 51.909C8.19139 51.9604 8.08919 51.9833 7.98717 51.9748C7.88515 51.9662 7.78822 51.9265 7.70949 51.8611C7.63075 51.7956 7.57399 51.7076 7.54689 51.6089C7.51979 51.5101 7.52365 51.4055 7.55795 51.309L7.75795 50.733C7.6921 50.6903 7.63755 50.6323 7.59895 50.564C7.53288 50.4494 7.51493 50.3132 7.54905 50.1854C7.58316 50.0576 7.66655 49.9485 7.78095 49.882L8.28095 49.593C8.36937 49.5429 8.47098 49.5208 8.57224 49.5299C8.67349 49.539 8.76957 49.5787 8.84768 49.6438C8.92578 49.7088 8.9822 49.7962 9.0094 49.8941C9.03661 49.9921 9.03331 50.096 8.99995 50.192L8.93695 50.374L10.2859 49.596C10.385 49.5393 10.5004 49.5182 10.6131 49.5361C10.7258 49.5541 10.8289 49.61 10.9054 49.6947C10.9819 49.7794 11.0272 49.8877 11.0336 50.0016C11.0401 50.1155 11.0074 50.2282 10.9409 50.321L9.80495 51.9L13.7979 49.6C13.9069 49.5384 14.035 49.5199 14.157 49.5481C14.2789 49.5764 14.3859 49.6494 14.4566 49.7527C14.5273 49.856 14.5568 49.982 14.5391 50.106C14.5213 50.2299 14.4578 50.3427 14.3609 50.422L13.3779 51.214L16.1779 49.598C16.2876 49.5366 16.4164 49.5187 16.5386 49.548C16.6609 49.5773 16.7676 49.6515 16.8376 49.7559C16.9076 49.8603 16.9356 49.9872 16.9163 50.1114C16.8969 50.2356 16.8314 50.3479 16.7329 50.426L14.4139 52.226L18.9629 49.6C19.0729 49.5365 19.203 49.5172 19.3266 49.546C19.4503 49.5749 19.5584 49.6497 19.6289 49.7554C19.6994 49.861 19.7271 49.9895 19.7063 50.1148C19.6855 50.2401 19.6178 50.3528 19.5169 50.43L15.6169 53.408L22.2169 49.598C22.3291 49.5341 22.4615 49.516 22.5867 49.5476C22.7118 49.5791 22.8199 49.6578 22.8884 49.7672C22.9568 49.8766 22.9803 50.0082 22.954 50.1345C22.9276 50.2609 22.8534 50.3721 22.7469 50.445L22.0129 50.945L24.3429 49.6C24.4539 49.5363 24.5851 49.5176 24.7094 49.5477C24.8338 49.5778 24.9419 49.6544 25.0114 49.7618C25.081 49.8691 25.1068 49.9991 25.0834 50.1249C25.0601 50.2507 24.9894 50.3627 24.8859 50.438L20.3949 53.687L27.4779 49.598C27.5896 49.5349 27.7213 49.5172 27.8457 49.5485C27.9701 49.5798 28.0777 49.6577 28.1463 49.7661C28.2149 49.8745 28.2392 50.0051 28.2142 50.1309C28.1892 50.2567 28.1168 50.3681 28.0119 50.442L25.1629 52.4L30.0369 49.586C30.1487 49.5238 30.2801 49.5069 30.404 49.5386C30.5279 49.5703 30.6349 49.6483 30.7031 49.7566C30.7712 49.8648 30.7953 49.9951 30.7704 50.1205C30.7454 50.246 30.6733 50.3571 30.5689 50.431L28.2089 52.048L32.4779 49.584C32.5885 49.5221 32.7184 49.5044 32.8414 49.5346C32.9645 49.5647 33.0715 49.6405 33.1409 49.7466C33.2102 49.8526 33.2367 49.981 33.215 50.1058C33.1933 50.2307 33.125 50.3426 33.0239 50.419L28.0129 54.119L35.8829 49.576C35.9937 49.512 36.1247 49.4929 36.2491 49.5226C36.3735 49.5523 36.4818 49.6285 36.5517 49.7355C36.6216 49.8426 36.6479 49.9724 36.625 50.0982C36.6022 50.224 36.532 50.3363 36.4289 50.412L31.5679 53.979L39.1999 49.574C39.3105 49.5121 39.4404 49.4944 39.5634 49.5246C39.6865 49.5547 39.7935 49.6305 39.8629 49.7365C39.9322 49.8426 39.9587 49.971 39.937 50.0958C39.9153 50.2207 39.847 50.3326 39.7459 50.409L34.8299 54.025L42.5469 49.571C42.6582 49.5076 42.7895 49.4892 42.9138 49.5197C43.0381 49.5502 43.146 49.6272 43.2153 49.7349C43.2845 49.8426 43.3098 49.9728 43.2859 50.0986C43.262 50.2243 43.1908 50.3362 43.0869 50.411L39.0549 53.281L45.4849 49.569C45.5972 49.5039 45.7305 49.4851 45.8564 49.5164C45.9824 49.5477 46.0912 49.6268 46.1599 49.737C46.2286 49.8471 46.2518 49.9796 46.2245 50.1065C46.1973 50.2334 46.1218 50.3448 46.0139 50.417L44.9559 51.127L47.6559 49.567C47.7676 49.503 47.8996 49.4844 48.0245 49.5152C48.1495 49.546 48.2577 49.6238 48.3268 49.7324C48.3958 49.841 48.4203 49.972 48.3952 50.0982C48.3701 50.2244 48.2973 50.3361 48.1919 50.41L44.8239 52.765L47.7199 51.1C47.8308 51.0353 47.9623 51.0158 48.0872 51.0454C48.2121 51.075 48.3209 51.1515 48.3909 51.2591C48.4609 51.3666 48.4869 51.497 48.4635 51.6232C48.44 51.7494 48.3689 51.8618 48.2649 51.937L45.6149 53.87L47.7149 52.655C47.8247 52.5932 47.9538 52.5752 48.0764 52.6044C48.1989 52.6337 48.3059 52.7082 48.3759 52.8129C48.4459 52.9177 48.4738 53.045 48.4539 53.1694C48.4341 53.2939 48.368 53.4062 48.2689 53.484L46.6539 54.723L47.7149 54.111C47.8198 54.0505 47.9431 54.0302 48.0619 54.0537C48.1806 54.0772 48.2868 54.1431 48.3607 54.239C48.4346 54.3349 48.4712 54.4543 48.4637 54.5751C48.4562 54.696 48.4051 54.81 48.3199 54.896L46.5619 56.67L47.7199 56C47.8201 55.9427 47.9369 55.9218 48.0507 55.9409C48.1645 55.9599 48.2682 56.0177 48.3442 56.1045C48.4202 56.1912 48.4639 56.3016 48.4679 56.4169C48.4719 56.5321 48.4358 56.6452 48.3659 56.737L47.7659 57.517C47.8666 57.535 47.9594 57.5835 48.0317 57.6559C48.104 57.7283 48.1523 57.8211 48.1702 57.9218C48.1881 58.0225 48.1746 58.1263 48.1317 58.2192C48.0887 58.312 48.0183 58.3894 47.9299 58.441L46.2719 59.398C46.1718 59.4553 46.055 59.4762 45.9412 59.4571C45.8274 59.4381 45.7237 59.3803 45.6477 59.2936C45.5717 59.2068 45.528 59.0965 45.524 58.9812C45.52 58.8659 45.556 58.7528 45.6259 58.661L46.0389 58.123L43.8279 59.4C43.7232 59.4597 43.6004 59.4795 43.4822 59.4558C43.3639 59.4321 43.2583 59.3665 43.1846 59.271C43.111 59.1756 43.0743 59.0567 43.0813 58.9364C43.0884 58.816 43.1387 58.7022 43.2229 58.616L44.9859 56.837L40.5449 59.4C40.4351 59.4631 40.3054 59.4821 40.1821 59.4532C40.0588 59.4244 39.951 59.3498 39.8806 59.2445C39.8101 59.1393 39.7822 59.0112 39.8025 58.8862C39.8228 58.7612 39.8898 58.6485 39.9899 58.571L41.5999 57.336L38.0229 59.4C37.9121 59.463 37.7814 59.4814 37.6575 59.4512C37.5337 59.4211 37.426 59.3448 37.3565 59.2379C37.287 59.131 37.261 59.0016 37.2838 58.8761C37.3065 58.7507 37.3763 58.6387 37.4789 58.563L40.1299 56.629L35.3299 59.4C35.2186 59.4617 35.0879 59.4785 34.9645 59.4472C34.8411 59.4158 34.7343 59.3385 34.6659 59.2311C34.5976 59.1237 34.5728 58.9943 34.5965 58.8692C34.6203 58.7441 34.6909 58.6328 34.7939 58.558L38.1589 56.205L32.6239 59.405C32.5472 59.4485 32.4602 59.471 32.3719 59.47Z" fill="#D8D8D8"/>
<path d="M11.3059 51.538C11.1958 51.538 11.0888 51.5017 11.0015 51.4347C10.9142 51.3676 10.8514 51.2737 10.8229 51.1674C10.7945 51.0611 10.8018 50.9483 10.844 50.8467C10.8861 50.745 10.9606 50.66 11.0559 50.605L13.7489 49.05C13.8368 48.9992 13.9381 48.9765 14.0393 48.9847C14.1405 48.9929 14.2367 49.0317 14.3153 49.096C14.3939 49.1602 14.4511 49.2469 14.4792 49.3444C14.5074 49.4419 14.5052 49.5457 14.4729 49.642L14.2669 50.258C14.3357 50.3017 14.393 50.3614 14.4339 50.432C14.4667 50.4889 14.4879 50.5517 14.4964 50.6169C14.5049 50.682 14.5005 50.7482 14.4834 50.8116C14.4663 50.875 14.4369 50.9345 14.3968 50.9865C14.3568 51.0386 14.3068 51.0822 14.2499 51.115L13.7499 51.403C13.6619 51.4535 13.5607 51.476 13.4596 51.4676C13.3585 51.4593 13.2623 51.4203 13.1839 51.356C13.1054 51.2919 13.0483 51.2054 13.0201 51.1081C12.9919 51.0107 12.9939 50.9071 13.0259 50.811L13.1039 50.576L11.5559 51.471C11.48 51.5151 11.3937 51.5383 11.3059 51.538Z" fill="#70443A"/>
<path d="M8.03011 53.977C7.92687 53.9769 7.82618 53.9449 7.74187 53.8853C7.65756 53.8257 7.59377 53.7415 7.55925 53.6442C7.52473 53.5469 7.52118 53.4412 7.54909 53.3418C7.577 53.2424 7.63499 53.1541 7.71511 53.089L8.81511 52.195L8.28011 52.5C8.17361 52.5619 8.04802 52.5822 7.92742 52.5572C7.80683 52.5322 7.69971 52.4635 7.62661 52.3644C7.55351 52.2653 7.51956 52.1427 7.53128 52.0201C7.543 51.8974 7.59956 51.7835 7.69011 51.7L10.3771 49.216L8.27711 50.426C8.16997 50.487 8.04409 50.5062 7.92364 50.48C7.80318 50.4538 7.69664 50.3841 7.62448 50.2841C7.55232 50.1842 7.51961 50.0611 7.53265 49.9385C7.54569 49.816 7.60354 49.7025 7.69511 49.62L10.0041 47.565L8.27711 48.565C8.16846 48.6278 8.04018 48.6474 7.91773 48.62C7.79528 48.5926 7.68762 48.5201 7.61611 48.417C7.54507 48.313 7.51591 48.186 7.53445 48.0614C7.55299 47.9368 7.61787 47.8238 7.71611 47.745L8.87611 46.8L8.27611 47.144C8.16645 47.2054 8.03768 47.2233 7.91544 47.194C7.7932 47.1648 7.68647 47.0905 7.61649 46.9861C7.54651 46.8817 7.51841 46.7548 7.5378 46.6306C7.55719 46.5064 7.62264 46.3941 7.72111 46.316L8.07011 46.045C7.98296 46.0507 7.89578 46.0344 7.8166 45.9975C7.73743 45.9606 7.66883 45.9044 7.61711 45.834C7.54548 45.7318 7.51468 45.6064 7.53078 45.4826C7.54688 45.3588 7.60871 45.2455 7.70411 45.165L9.35911 43.765L8.28011 44.39C8.1735 44.4516 8.04791 44.4716 7.92742 44.4464C7.80693 44.4211 7.7 44.3522 7.62711 44.253C7.55402 44.1537 7.52023 44.0308 7.53222 43.908C7.54422 43.7853 7.60117 43.6713 7.69211 43.588L10.2791 41.22L8.27911 42.374C8.16993 42.4352 8.04177 42.4532 7.91997 42.4244C7.79816 42.3957 7.69155 42.3223 7.62121 42.2188C7.55086 42.1153 7.52189 41.9892 7.54002 41.8654C7.55814 41.7415 7.62205 41.629 7.71911 41.55L8.38011 41.024L8.28011 41.082C8.17206 41.1436 8.04494 41.1627 7.92357 41.1356C7.8022 41.1085 7.69529 41.0371 7.6237 40.9354C7.55212 40.8337 7.521 40.709 7.53642 40.5856C7.55184 40.4622 7.6127 40.3489 7.70711 40.268L9.42311 38.814L8.28011 39.474C8.17072 39.5379 8.04114 39.558 7.91755 39.53C7.79397 39.5021 7.6856 39.4282 7.61436 39.3235C7.54311 39.2187 7.5143 39.0908 7.53374 38.9656C7.55319 38.8404 7.61944 38.7272 7.71911 38.649L8.42611 38.088L8.28011 38.171C8.17357 38.2369 8.04616 38.2604 7.92311 38.2369C7.80006 38.2133 7.69034 38.1444 7.61565 38.0438C7.54096 37.9433 7.50676 37.8183 7.51981 37.6937C7.53286 37.5691 7.59221 37.4539 7.68611 37.371L10.5861 34.611L8.28011 35.949C8.17102 36.0109 8.04262 36.0296 7.9204 36.0013C7.79818 35.973 7.69107 35.8998 7.62032 35.7962C7.54957 35.6926 7.52035 35.5661 7.53847 35.442C7.55659 35.3179 7.62071 35.2051 7.71811 35.126L8.52511 34.48L8.28011 34.621C8.17274 34.6823 8.04647 34.7017 7.92567 34.6753C7.80487 34.649 7.69811 34.5788 7.62601 34.4784C7.55392 34.3779 7.52159 34.2543 7.53527 34.1314C7.54896 34.0086 7.60768 33.8951 7.70011 33.813L9.87411 31.9L8.28011 32.82C8.17377 32.8771 8.05038 32.8937 7.9327 32.8669C7.81502 32.8402 7.71101 32.7717 7.63985 32.6742C7.5687 32.5768 7.5352 32.4568 7.54554 32.3366C7.55588 32.2163 7.60936 32.1039 7.69611 32.02L10.0961 29.859L8.27611 30.909C8.16785 30.97 8.04074 30.9886 7.91955 30.961C7.79837 30.9334 7.6918 30.8617 7.62062 30.7598C7.54945 30.6579 7.51878 30.5332 7.53458 30.4099C7.55039 30.2866 7.61154 30.1736 7.70611 30.093L9.21211 28.835L8.27611 29.375C8.16761 29.4365 8.04002 29.4553 7.91838 29.4276C7.79675 29.3999 7.68987 29.3277 7.61872 29.2253C7.54757 29.1228 7.5173 28.9974 7.53383 28.8738C7.55037 28.7502 7.61253 28.6372 7.70811 28.557L9.04411 27.457L8.27611 27.9C8.16623 27.9645 8.03588 27.9846 7.91169 27.9562C7.78749 27.9278 7.67882 27.853 7.60785 27.7472C7.53689 27.6414 7.50899 27.5125 7.52986 27.3869C7.55072 27.2612 7.61877 27.1482 7.72011 27.071L8.08511 26.789C7.99549 26.7987 7.9049 26.7843 7.82266 26.7474C7.74042 26.7105 7.66947 26.6524 7.61711 26.579C7.5453 26.4766 7.5145 26.3509 7.5308 26.2269C7.54709 26.1028 7.60928 25.9894 7.70511 25.909L9.28411 24.58L8.28411 25.159C8.17763 25.22 8.05244 25.2397 7.93238 25.2143C7.81232 25.189 7.70577 25.1204 7.63302 25.0215C7.56027 24.9227 7.52639 24.8006 7.53784 24.6784C7.54929 24.5563 7.60527 24.4426 7.69511 24.359L10.3341 21.926L8.28011 23.109C8.17093 23.1702 8.04277 23.1882 7.92097 23.1594C7.79916 23.1307 7.69255 23.0573 7.62221 22.9538C7.55186 22.8503 7.52289 22.7242 7.54102 22.6004C7.55914 22.4765 7.62305 22.364 7.72011 22.285L8.35311 21.785L8.28011 21.826C8.17358 21.8898 8.04713 21.9116 7.92538 21.8873C7.80364 21.8629 7.69529 21.7942 7.62144 21.6944C7.54759 21.5946 7.51351 21.4709 7.52583 21.3473C7.53815 21.2238 7.596 21.1092 7.68811 21.026L10.4601 18.433L8.28011 19.69C8.17371 19.7485 8.04963 19.7664 7.93105 19.7401C7.81247 19.7139 7.70749 19.6454 7.63573 19.5474C7.56396 19.4494 7.5303 19.3287 7.54105 19.2077C7.55179 19.0867 7.6062 18.9738 7.69411 18.89L10.1581 16.66L8.28011 17.741C8.17403 17.8023 8.04913 17.8225 7.92913 17.7978C7.80912 17.7731 7.70236 17.7052 7.62911 17.607C7.55573 17.5086 7.52108 17.3867 7.53178 17.2644C7.54248 17.1422 7.59776 17.0281 7.68711 16.944L10.5121 14.283L8.28011 15.571C8.17277 15.6314 8.04691 15.65 7.92667 15.6234C7.80643 15.5967 7.70026 15.5266 7.62851 15.4265C7.55677 15.3264 7.52451 15.2033 7.53791 15.0809C7.5513 14.9584 7.60942 14.8452 7.70111 14.763L9.82211 12.9L8.28011 13.79C8.17239 13.8519 8.04548 13.8715 7.92412 13.8449C7.80275 13.8184 7.69562 13.7476 7.6236 13.6463C7.55158 13.5451 7.51982 13.4207 7.53452 13.2973C7.54922 13.1739 7.60932 13.0605 7.70311 12.979L9.66011 11.291L8.28011 12.091C8.17434 12.1547 8.04874 12.177 7.92751 12.1536C7.80628 12.1302 7.69799 12.0628 7.62349 11.9643C7.54899 11.8659 7.51356 11.7433 7.52401 11.6203C7.53447 11.4973 7.59007 11.3825 7.68011 11.298L10.6801 8.407L8.28011 9.79C8.17289 9.85023 8.04722 9.86883 7.92714 9.84225C7.80706 9.81566 7.701 9.74575 7.62922 9.64588C7.55744 9.54601 7.52499 9.42319 7.53807 9.3009C7.55115 9.17861 7.60884 9.06543 7.70011 8.983L9.95111 6.983L8.28011 7.95C8.17495 8.00914 8.05195 8.02826 7.9338 8.00383C7.81564 7.9794 7.71031 7.91308 7.63722 7.81709C7.56413 7.72109 7.52821 7.60191 7.5361 7.48152C7.54398 7.36112 7.59513 7.24764 7.68011 7.162L10.4901 4.39L8.36911 5.613C8.26334 5.67668 8.13774 5.69898 8.01651 5.67559C7.89528 5.6522 7.78698 5.58479 7.71249 5.48633C7.63799 5.38787 7.60256 5.26533 7.61301 5.14231C7.62347 5.01928 7.67907 4.90448 7.76911 4.82L8.71511 3.91C8.63115 3.86596 8.56169 3.79859 8.51511 3.716C8.48237 3.65902 8.46117 3.59614 8.45275 3.53096C8.44433 3.46578 8.44883 3.39958 8.46602 3.33615C8.4832 3.27271 8.51272 3.21329 8.55289 3.16127C8.59305 3.10925 8.64308 3.06567 8.70011 3.033L11.0761 1.662C11.1819 1.59832 11.3075 1.57602 11.4287 1.59941C11.5499 1.6228 11.6582 1.69021 11.7327 1.78867C11.8072 1.88713 11.8427 2.00967 11.8322 2.13269C11.8218 2.25572 11.7662 2.37052 11.6761 2.455L11.4231 2.699L13.3741 1.572C13.4793 1.51286 13.6023 1.49374 13.7204 1.51817C13.8386 1.5426 13.9439 1.60892 14.017 1.70491C14.0901 1.80091 14.126 1.92009 14.1181 2.04048C14.1102 2.16088 14.0591 2.27436 13.9741 2.36L11.1571 5.136L13.7221 3.655C13.8294 3.59293 13.9559 3.57292 14.0771 3.59885C14.1983 3.62478 14.3055 3.69479 14.378 3.79532C14.4505 3.89584 14.4831 4.01971 14.4695 4.14289C14.4558 4.26608 14.3969 4.3798 14.3041 4.462L12.0541 6.462L13.7231 5.499C13.8289 5.43532 13.9545 5.41302 14.0757 5.43641C14.1969 5.4598 14.3052 5.52721 14.3797 5.62567C14.4542 5.72413 14.4897 5.84667 14.4792 5.96969C14.4688 6.09272 14.4132 6.20752 14.3231 6.292L11.3231 9.182L13.7231 7.795C13.8299 7.73892 13.9534 7.72335 14.0708 7.75118C14.1882 7.77901 14.2916 7.84835 14.3619 7.94641C14.4322 8.04448 14.4647 8.16465 14.4533 8.28477C14.4419 8.40489 14.3875 8.51685 14.3001 8.6L12.3421 10.293L13.7241 9.493C13.8316 9.43151 13.9581 9.41209 14.0791 9.43851C14.2 9.46493 14.3069 9.5353 14.379 9.636C14.4511 9.7367 14.4832 9.86056 14.4692 9.9836C14.4552 10.1066 14.396 10.2201 14.3031 10.302L12.1831 12.16L13.7251 11.27C13.8316 11.2062 13.9581 11.1844 14.0798 11.2087C14.2016 11.2331 14.3099 11.3018 14.3838 11.4016C14.4576 11.5014 14.4917 11.6251 14.4794 11.7487C14.4671 11.8722 14.4092 11.9868 14.3171 12.07L11.4931 14.731L13.7271 13.442C13.8335 13.3842 13.9572 13.367 14.0753 13.3935C14.1935 13.42 14.2979 13.4885 14.3694 13.5862C14.4409 13.6839 14.4744 13.8043 14.4639 13.9249C14.4534 14.0455 14.3994 14.1582 14.3121 14.242L11.8481 16.473L13.7281 15.388C13.8346 15.3252 13.9606 15.3041 14.0818 15.3288C14.203 15.3535 14.3107 15.4222 14.3841 15.5217C14.4576 15.6211 14.4916 15.7443 14.4796 15.8673C14.4676 15.9904 14.4104 16.1046 14.3191 16.188L11.5491 18.781L13.7281 17.523C13.8375 17.4591 13.9671 17.439 14.0907 17.467C14.2143 17.4949 14.3226 17.5688 14.3939 17.6735C14.4651 17.7783 14.4939 17.9062 14.4745 18.0314C14.455 18.1566 14.3888 18.2698 14.2891 18.348L13.6581 18.848L13.7291 18.807C13.8356 18.746 13.9608 18.7263 14.0808 18.7517C14.2009 18.777 14.3075 18.8456 14.3802 18.9445C14.453 19.0433 14.4868 19.1654 14.4754 19.2876C14.4639 19.4097 14.408 19.5234 14.3181 19.607L11.6801 22.04L13.7301 20.856C13.8384 20.7928 13.9665 20.7727 14.089 20.7995C14.2115 20.8264 14.3194 20.8983 14.3914 21.0009C14.4634 21.1036 14.4941 21.2296 14.4776 21.3539C14.4611 21.4782 14.3984 21.5917 14.3021 21.672L12.7281 22.993L13.7281 22.414C13.8379 22.3501 13.9678 22.3303 14.0916 22.3587C14.2154 22.3871 14.3238 22.4615 14.3947 22.5669C14.4656 22.6723 14.4937 22.8008 14.4734 22.9261C14.453 23.0515 14.3857 23.1644 14.2851 23.242L13.9191 23.525C14.0265 23.5118 14.1352 23.5339 14.229 23.5877C14.3228 23.6416 14.3966 23.7245 14.4393 23.8239C14.482 23.9233 14.4914 24.0338 14.4659 24.139C14.4404 24.2441 14.3816 24.3382 14.2981 24.407L12.9601 25.512L13.7301 25.067C13.8386 25.0035 13.9669 24.9832 14.0897 25.0101C14.2124 25.037 14.3205 25.1091 14.3925 25.2121C14.4645 25.3151 14.495 25.4414 14.4781 25.5659C14.4612 25.6904 14.398 25.804 14.3011 25.884L12.8001 27.144L13.7381 26.603C13.8445 26.5459 13.9679 26.5293 14.0855 26.5561C14.2032 26.5828 14.3072 26.6513 14.3784 26.7488C14.4495 26.8462 14.483 26.9662 14.4727 27.0864C14.4624 27.2067 14.4089 27.3191 14.3221 27.403L11.9221 29.562L13.7411 28.513C13.8483 28.4528 13.974 28.4342 14.0941 28.4608C14.2142 28.4873 14.3202 28.5573 14.392 28.6571C14.4638 28.757 14.4962 28.8798 14.4832 29.0021C14.4701 29.1244 14.4124 29.2376 14.3211 29.32L12.1491 31.232L13.7421 30.312C13.8514 30.2471 13.9813 30.2263 14.1054 30.2538C14.2295 30.2813 14.3385 30.3549 14.4102 30.4599C14.4819 30.5648 14.5109 30.6931 14.4914 30.8187C14.4719 30.9443 14.4053 31.0578 14.3051 31.136L13.4991 31.78L13.7431 31.64C13.849 31.5752 13.9752 31.5521 14.0972 31.5752C14.2192 31.5983 14.3282 31.666 14.403 31.765C14.4779 31.8641 14.5132 31.9874 14.5021 32.1111C14.491 32.2347 14.4344 32.3498 14.3431 32.434L11.4271 35.2L13.7401 33.865C13.8494 33.8015 13.9786 33.7817 14.1019 33.8096C14.2251 33.8376 14.3332 33.9111 14.4045 34.0155C14.4757 34.12 14.5047 34.2475 14.4857 34.3724C14.4667 34.4973 14.4011 34.6105 14.3021 34.689L13.6021 35.248L13.7421 35.167C13.8502 35.1054 13.9773 35.0863 14.0987 35.1134C14.22 35.1405 14.3269 35.2119 14.3985 35.3136C14.4701 35.4153 14.5012 35.54 14.4858 35.6634C14.4704 35.7868 14.4095 35.9001 14.3151 35.981L12.6001 37.434L13.7411 36.774C13.8505 36.7101 13.9801 36.69 14.1037 36.718C14.2273 36.7459 14.3356 36.8198 14.4069 36.9245C14.4781 37.0293 14.5069 37.1572 14.4875 37.2824C14.468 37.4076 14.4018 37.5208 14.3021 37.599L13.6381 38.126L13.7381 38.066C13.8446 38.0059 13.9694 37.9868 14.0889 38.0125C14.2085 38.0381 14.3145 38.1067 14.3869 38.2052C14.4593 38.3038 14.4931 38.4254 14.4819 38.5472C14.4707 38.6689 14.4153 38.7823 14.3261 38.866L11.7401 41.233L13.7401 40.079C13.8483 40.0172 13.9756 39.998 14.0972 40.0252C14.2188 40.0523 14.3259 40.1239 14.3974 40.2259C14.469 40.3279 14.4999 40.4529 14.4842 40.5765C14.4684 40.7 14.407 40.8133 14.3121 40.894L12.6551 42.294L13.7411 41.668C13.8508 41.6054 13.9802 41.5866 14.1031 41.6155C14.2261 41.6443 14.3336 41.7186 14.404 41.8235C14.4745 41.9284 14.5026 42.056 14.4827 42.1808C14.4629 42.3055 14.3966 42.4181 14.2971 42.496L13.9471 42.767C14.0349 42.7615 14.1226 42.7781 14.2023 42.8153C14.282 42.8525 14.351 42.9091 14.4031 42.98C14.4748 43.0833 14.505 43.2098 14.4876 43.3344C14.4701 43.4589 14.4064 43.5723 14.3091 43.652L13.1511 44.597L13.7431 44.255C13.8503 44.194 13.9761 44.1748 14.0966 44.201C14.217 44.2272 14.3236 44.2969 14.3957 44.3969C14.4679 44.4968 14.5006 44.6199 14.4876 44.7425C14.4745 44.865 14.4167 44.9785 14.3251 45.061L12.0161 47.117L13.7441 46.117C13.8506 46.0551 13.9762 46.0348 14.0968 46.0598C14.2174 46.0848 14.3245 46.1535 14.3976 46.2526C14.4707 46.3517 14.5047 46.4743 14.4929 46.5969C14.4812 46.7196 14.4247 46.8335 14.3341 46.917L11.6501 49.4L13.7501 48.189C13.859 48.1266 13.9874 48.1074 14.1097 48.1352C14.2321 48.1631 14.3396 48.2359 14.4107 48.3393C14.4819 48.4427 14.5115 48.5691 14.4938 48.6933C14.4761 48.8176 14.4123 48.9306 14.3151 49.01L8.81511 53.479C8.77319 53.5798 8.69943 53.6641 8.60511 53.719L8.28011 53.907C8.2044 53.9519 8.11816 53.9761 8.03011 53.977Z" fill="#70443A"/>
<path d="M21.03 8.08099C20.9306 8.08078 20.8336 8.05099 20.7513 7.9954C20.6689 7.93982 20.605 7.86098 20.5677 7.76892C20.5303 7.67686 20.5213 7.57577 20.5416 7.47854C20.562 7.3813 20.6108 7.29234 20.682 7.22299L23.515 4.46199L21.305 5.73699C21.2014 5.79709 21.0797 5.81804 20.962 5.79602C20.8443 5.774 20.7385 5.71049 20.6636 5.61702C20.5888 5.52355 20.55 5.40633 20.5543 5.28668C20.5586 5.16702 20.6056 5.05288 20.687 4.96499L22.068 3.47599C21.9942 3.43063 21.9335 3.36688 21.8917 3.29099C21.85 3.2151 21.8287 3.12968 21.8299 3.04308C21.8311 2.95648 21.8548 2.87169 21.8986 2.79699C21.9425 2.7223 22.0049 2.66027 22.08 2.61699L23.832 1.60499C23.9356 1.54488 24.0574 1.52399 24.1752 1.54613C24.2929 1.56827 24.3988 1.63196 24.4736 1.72561C24.5483 1.81926 24.5869 1.93663 24.5824 2.05637C24.5779 2.17611 24.5305 2.29024 24.449 2.37799L23.672 3.21699L26.477 1.59999C26.5825 1.5383 26.707 1.5174 26.8269 1.54126C26.9468 1.56512 27.0538 1.63208 27.1277 1.72948C27.2015 1.82687 27.2372 1.94796 27.2278 2.06985C27.2185 2.19174 27.1648 2.30599 27.077 2.39099L24.243 5.14799L30.394 1.59999C30.5082 1.54021 30.6412 1.5269 30.765 1.56283C30.8889 1.59876 30.9941 1.68116 31.0586 1.79281C31.1231 1.90446 31.142 2.03673 31.1114 2.16199C31.0807 2.28725 31.0028 2.3958 30.894 2.46499L21.28 8.01399C21.2042 8.05837 21.1178 8.08152 21.03 8.08099Z" fill="#925C4D"/>
<path d="M14.1 51.5C13.9917 51.4999 13.8863 51.4646 13.7997 51.3994C13.7132 51.3341 13.6502 51.2426 13.6202 51.1385C13.5902 51.0344 13.5948 50.9233 13.6334 50.822C13.6719 50.7208 13.7423 50.6348 13.834 50.577L27.508 41.971L12.28 50.763C12.1664 50.827 12.0323 50.8441 11.9063 50.8107C11.7803 50.7772 11.6724 50.6959 11.6055 50.584C11.5386 50.4721 11.518 50.3385 11.5482 50.2116C11.5784 50.0848 11.6569 49.9748 11.767 49.905L23.886 42.366L12.28 49.066C12.167 49.1264 12.0352 49.1411 11.9117 49.1071C11.7882 49.0731 11.6824 48.9931 11.6163 48.8834C11.5501 48.7737 11.5285 48.6428 11.556 48.5177C11.5835 48.3926 11.6579 48.2828 11.764 48.211L28.41 37.7L12.28 47.01C12.1667 47.0724 12.0335 47.0885 11.9085 47.0548C11.7836 47.0211 11.6766 46.9402 11.61 46.8292C11.5434 46.7182 11.5225 46.5858 11.5516 46.4596C11.5807 46.3335 11.6576 46.2236 11.766 46.153L24.637 38.129L12.28 45.263C12.1664 45.327 12.0323 45.3441 11.9063 45.3107C11.7803 45.2772 11.6724 45.1959 11.6055 45.084C11.5386 44.9721 11.518 44.8385 11.5482 44.7116C11.5784 44.5848 11.6569 44.4748 11.767 44.405L23.945 36.828L12.28 43.562C12.1669 43.6233 12.0344 43.6386 11.9103 43.6047C11.7861 43.5709 11.6798 43.4904 11.6134 43.3801C11.5471 43.2699 11.5258 43.1382 11.554 43.0127C11.5823 42.8871 11.6578 42.7773 11.765 42.706L26.882 33.213L12.282 41.644C12.1683 41.7059 12.035 41.7212 11.9102 41.6868C11.7854 41.6523 11.6788 41.5708 11.6129 41.4594C11.5469 41.348 11.5268 41.2154 11.5566 41.0894C11.5865 40.9634 11.6641 40.854 11.773 40.784L12.457 40.367L12.282 40.467C12.1688 40.5317 12.0348 40.5496 11.9086 40.5169C11.7823 40.4842 11.6739 40.4035 11.6063 40.292C11.5387 40.1805 11.5174 40.0469 11.5469 39.9199C11.5763 39.7929 11.6542 39.6824 11.764 39.612L30.639 27.572L12.28 38.171C12.1664 38.235 12.0323 38.2521 11.9063 38.2187C11.7803 38.1852 11.6724 38.1039 11.6055 37.992C11.5386 37.8801 11.518 37.7465 11.5482 37.6196C11.5784 37.4928 11.6569 37.3828 11.767 37.313L23.945 29.736L12.28 36.471C12.1664 36.5339 12.0327 36.55 11.9074 36.516C11.782 36.4821 11.6748 36.4007 11.6084 36.2891C11.542 36.1774 11.5216 36.0444 11.5516 35.918C11.5816 35.7916 11.6596 35.6819 11.769 35.612L18.732 31.332L12.28 35.057C12.1661 35.1219 12.0313 35.1395 11.9045 35.1059C11.7778 35.0724 11.6693 34.9904 11.6024 34.8776C11.5355 34.7649 11.5156 34.6303 11.547 34.503C11.5783 34.3757 11.6584 34.2658 11.77 34.197L15.47 31.937L12.28 33.777C12.1671 33.8382 12.035 33.8536 11.9111 33.82C11.7871 33.7865 11.6809 33.7065 11.6143 33.5967C11.5477 33.4869 11.5259 33.3557 11.5534 33.2303C11.5809 33.1049 11.6556 32.9949 11.762 32.923L30.273 21.136L12.28 31.523C12.1671 31.5842 12.035 31.5996 11.9111 31.566C11.7871 31.5325 11.6809 31.4525 11.6143 31.3427C11.5477 31.2329 11.5259 31.1017 11.5534 30.9763C11.5809 30.8509 11.6556 30.7409 11.762 30.669L29.762 19.233L12.28 29.327C12.1667 29.3895 12.0335 29.4055 11.9085 29.3718C11.7836 29.3381 11.6766 29.2572 11.61 29.1462C11.5434 29.0352 11.5225 28.9028 11.5516 28.7766C11.5807 28.6505 11.6576 28.5406 11.766 28.47L24.325 20.648L12.28 27.6C12.1665 27.6686 12.0304 27.6892 11.9017 27.6574C11.7729 27.6257 11.6621 27.544 11.5935 27.4305C11.525 27.317 11.5043 27.1809 11.5361 27.0522C11.5679 26.9234 11.6495 26.8126 11.763 26.744L28.863 15.918L12.28 25.493C12.167 25.5526 12.0354 25.5667 11.9123 25.5323C11.7892 25.4979 11.6839 25.4177 11.6181 25.3082C11.5523 25.1986 11.531 25.068 11.5585 24.9431C11.586 24.8183 11.6603 24.7088 11.766 24.637L23.63 17.237L12.28 23.787C12.1674 23.8481 12.0356 23.8637 11.9118 23.8305C11.7881 23.7972 11.6818 23.7177 11.6149 23.6084C11.5481 23.4991 11.5258 23.3683 11.5526 23.243C11.5794 23.1176 11.6533 23.0074 11.759 22.935L27.969 12.462L12.28 21.52C12.1668 21.5847 12.0328 21.6026 11.9066 21.5699C11.7803 21.5372 11.6719 21.4565 11.6043 21.345C11.5367 21.2335 11.5154 21.0999 11.5449 20.9729C11.5743 20.8459 11.6522 20.7354 11.762 20.665L21.989 14.165L12.28 19.768C12.1673 19.831 12.0346 19.8479 11.9096 19.8153C11.7847 19.7826 11.6773 19.7028 11.6098 19.5927C11.5423 19.4826 11.5201 19.3507 11.5477 19.2245C11.5753 19.0984 11.6507 18.9878 11.758 18.916L22.675 11.809L12.275 17.809C12.1627 17.8741 12.0295 17.893 11.9036 17.8616C11.7776 17.8303 11.6688 17.7512 11.6001 17.6411C11.5314 17.5309 11.5082 17.3984 11.5354 17.2715C11.5627 17.1446 11.6382 17.0333 11.746 16.961L22.526 9.70701L12.28 15.622C12.1718 15.6838 12.0445 15.703 11.9229 15.6759C11.8013 15.6487 11.6943 15.5771 11.6227 15.4751C11.5511 15.3731 11.5202 15.2481 11.536 15.1245C11.5518 15.001 11.6131 14.8877 11.708 14.807L15.03 12.014L12.28 13.6C12.17 13.6614 12.0408 13.679 11.9184 13.6493C11.796 13.6196 11.6893 13.5447 11.6196 13.4397C11.55 13.3347 11.5226 13.2073 11.5429 13.0829C11.5632 12.9586 11.6296 12.8465 11.729 12.769L12.211 12.404C12.0997 12.4492 11.9758 12.4527 11.8621 12.414C11.7483 12.3754 11.6523 12.297 11.5916 12.1933C11.5309 12.0896 11.5095 11.9675 11.5315 11.8494C11.5534 11.7313 11.6171 11.625 11.711 11.55L12.89 10.588L12.277 10.941C12.1707 10.9974 12.0476 11.0135 11.9304 10.9865C11.8132 10.9594 11.7096 10.891 11.6387 10.7937C11.5679 10.6965 11.5345 10.577 11.5446 10.4571C11.5548 10.3372 11.6078 10.225 11.694 10.141L13.184 8.81101L12.277 9.33301C12.1691 9.39436 12.0422 9.41336 11.921 9.38632C11.7999 9.35927 11.6931 9.28812 11.6215 9.18671C11.5499 9.08529 11.5186 8.96086 11.5336 8.83763C11.5487 8.7144 11.6091 8.60119 11.703 8.52001L12.439 7.89501L12.277 7.98701C12.1705 8.05077 12.044 8.0726 11.9223 8.04828C11.8005 8.02395 11.6922 7.95519 11.6183 7.85539C11.5445 7.75559 11.5104 7.63188 11.5227 7.50834C11.5351 7.3848 11.5929 7.27026 11.685 7.18701L13.456 5.52401L12.277 6.20501C12.1779 6.26215 12.0622 6.28357 11.9492 6.26569C11.8362 6.24782 11.7327 6.19172 11.6561 6.10677C11.5794 6.02182 11.5342 5.91316 11.528 5.79891C11.5218 5.68467 11.555 5.57175 11.622 5.47901L12.96 3.63201L12.28 4.02401C12.1926 4.07435 12.0921 4.09709 11.9916 4.08925C11.891 4.08141 11.7952 4.04336 11.7167 3.98009C11.6382 3.91683 11.5806 3.8313 11.5516 3.73474C11.5226 3.63818 11.5234 3.53509 11.554 3.43901L11.775 2.74901C11.7013 2.70475 11.64 2.64246 11.597 2.56801C11.5307 2.45317 11.5127 2.3167 11.5471 2.18861C11.5814 2.06053 11.6652 1.95132 11.78 1.88501L12.28 1.59701C12.3675 1.54619 12.4683 1.52309 12.5692 1.53077C12.6701 1.53845 12.7662 1.57656 12.845 1.64005C12.9238 1.70353 12.9814 1.78942 13.0103 1.88636C13.0393 1.98331 13.0381 2.08674 13.007 2.18301L12.901 2.51201L14.485 1.60001C14.584 1.54278 14.6997 1.52123 14.8127 1.53896C14.9257 1.55669 15.0292 1.61263 15.106 1.69744C15.1827 1.78226 15.2281 1.89083 15.2344 2.00503C15.2408 2.11924 15.2078 2.23218 15.141 2.32501L13.806 4.17001L16.706 2.49201C16.8126 2.42826 16.939 2.40642 17.0607 2.43075C17.1825 2.45508 17.2908 2.52383 17.3647 2.62364C17.4385 2.72344 17.4726 2.84714 17.4603 2.97069C17.448 3.09423 17.3901 3.20877 17.298 3.29201L15.529 4.95301L16.72 4.26701C16.8279 4.20567 16.9548 4.18667 17.076 4.21371C17.1972 4.24075 17.3039 4.3119 17.3755 4.41332C17.4472 4.51474 17.4785 4.63917 17.4634 4.76239C17.4483 4.88562 17.3879 4.99884 17.294 5.08001L16.557 5.70701L16.883 5.51901C16.9893 5.46265 17.1124 5.44652 17.2296 5.47358C17.3469 5.50063 17.4504 5.56906 17.5213 5.6663C17.5922 5.76354 17.6256 5.88307 17.6154 6.00297C17.6053 6.12286 17.5522 6.23507 17.466 6.31901L15.979 7.65201L17.763 6.62301C17.8718 6.5609 17.9999 6.54186 18.122 6.56966C18.2441 6.59747 18.3513 6.67008 18.4225 6.77316C18.4936 6.87623 18.5235 7.00225 18.5062 7.12629C18.4889 7.25033 18.4257 7.36335 18.329 7.44301L17.151 8.40001L18.669 7.52401C18.7791 7.46136 18.9088 7.44281 19.032 7.47212C19.1553 7.50142 19.2628 7.5764 19.3328 7.68189C19.4029 7.78739 19.4304 7.91555 19.4096 8.04049C19.3888 8.16543 19.3214 8.27784 19.221 8.35501L18.778 8.69001L19.448 8.30401C19.5562 8.24114 19.6841 8.22113 19.8063 8.24793C19.9285 8.27472 20.0363 8.34638 20.1082 8.44875C20.1802 8.55113 20.2112 8.67676 20.195 8.80086C20.1789 8.92495 20.1168 9.03848 20.021 9.11901L16.697 11.919L34.573 1.60001C34.6851 1.53612 34.8176 1.51804 34.9428 1.54957C35.0679 1.58111 35.176 1.6598 35.2444 1.7692C35.3129 1.87859 35.3364 2.01022 35.31 2.13655C35.2837 2.26287 35.2095 2.37412 35.103 2.44701L24.326 9.70001L38.362 1.60001C38.4746 1.53803 38.6066 1.52175 38.7309 1.55456C38.8551 1.58736 38.9619 1.66672 39.0292 1.77619C39.0965 1.88565 39.119 2.01681 39.0922 2.14246C39.0653 2.26811 38.9911 2.3786 38.885 2.45101L27.968 9.55701L41.754 1.60001C41.8669 1.53883 41.999 1.52343 42.1229 1.55699C42.2469 1.59056 42.3532 1.67052 42.4198 1.7803C42.4863 1.89009 42.5081 2.02129 42.4806 2.14671C42.4531 2.27213 42.3784 2.38217 42.272 2.45401L32.047 8.95401L44.788 1.60001C44.9007 1.53703 45.0335 1.5201 45.1584 1.55277C45.2833 1.58544 45.3908 1.66518 45.4582 1.77529C45.5257 1.8854 45.5479 2.01734 45.5203 2.14348C45.4927 2.26962 45.4173 2.38018 45.31 2.45201L29.11 12.92L48.469 1.73901C48.5824 1.67658 48.7155 1.66053 48.8405 1.69425C48.9654 1.72796 49.0725 1.80882 49.139 1.91981C49.2056 2.03079 49.2265 2.16327 49.1974 2.28938C49.1683 2.41549 49.0915 2.5254 48.983 2.59601L37.1 10.008L49.56 2.81401C49.6162 2.78 49.6786 2.75739 49.7435 2.74748C49.8085 2.73756 49.8747 2.74054 49.9385 2.75623C50.0023 2.77192 50.0624 2.80003 50.1153 2.83894C50.1683 2.87785 50.213 2.92681 50.247 2.98301C50.281 3.03922 50.3036 3.10157 50.3135 3.16652C50.3235 3.23146 50.3205 3.29772 50.3048 3.36151C50.2891 3.42531 50.261 3.48539 50.2221 3.53832C50.1832 3.59125 50.1342 3.636 50.078 3.67001L32.987 14.492L49.72 4.83201C49.8334 4.76958 49.9665 4.75353 50.0915 4.78725C50.2164 4.82096 50.3235 4.90182 50.39 5.01281C50.4566 5.1238 50.4775 5.25627 50.4484 5.38238C50.4193 5.50849 50.3425 5.6184 50.234 5.68901L37.675 13.511L49.72 6.55801C49.8329 6.49683 49.965 6.48143 50.0889 6.51499C50.2129 6.54856 50.3192 6.62852 50.3858 6.7383C50.4523 6.84809 50.4741 6.97929 50.4466 7.10471C50.4191 7.23013 50.3444 7.34017 50.238 7.41201L32.238 18.848L49.72 8.75401C49.8329 8.69283 49.965 8.67743 50.0889 8.71099C50.2129 8.74456 50.3192 8.82452 50.3858 8.9343C50.4523 9.04409 50.4741 9.17529 50.4466 9.30071C50.4191 9.42613 50.3444 9.53617 50.238 9.60801L31.738 21.391L49.72 11.007C49.8335 10.9463 49.9661 10.9318 50.0901 10.9664C50.2141 11.001 50.3199 11.082 50.3856 11.1927C50.4513 11.3034 50.4718 11.4352 50.4429 11.5606C50.4139 11.686 50.3376 11.7954 50.23 11.866L46.53 14.127L49.72 12.286C49.8337 12.2232 49.9673 12.207 50.0927 12.241C50.218 12.2749 50.3253 12.3563 50.3917 12.468C50.4581 12.5796 50.4784 12.7127 50.4484 12.839C50.4184 12.9654 50.3405 13.0751 50.231 13.145L43.246 17.438L49.72 13.7C49.8336 13.636 49.9677 13.6189 50.0937 13.6524C50.2197 13.6858 50.3277 13.7672 50.3946 13.8791C50.4615 13.991 50.482 14.1246 50.4519 14.2514C50.4217 14.3782 50.3431 14.4882 50.233 14.558L38.055 22.136L49.72 15.4C49.8332 15.3353 49.9672 15.3174 50.0935 15.3501C50.2197 15.3828 50.3282 15.4635 50.3957 15.575C50.4633 15.6866 50.4846 15.8201 50.4552 15.9471C50.4257 16.0741 50.3478 16.1846 50.238 16.255L31.371 28.291L49.72 17.7C49.8338 17.6382 49.967 17.6228 50.0918 17.6573C50.2166 17.6917 50.3232 17.7732 50.3892 17.8846C50.4551 17.996 50.4753 18.1287 50.4454 18.2546C50.4155 18.3806 50.338 18.4901 50.229 18.56L49.545 18.977L49.72 18.877C49.8332 18.8157 49.9656 18.8004 50.0898 18.8343C50.2139 18.8682 50.3203 18.9486 50.3866 19.0589C50.453 19.1692 50.4742 19.3008 50.446 19.4263C50.4178 19.5519 50.3422 19.6618 50.235 19.733L35.118 29.223L49.718 20.792C49.8313 20.7315 49.9634 20.7169 50.0871 20.7512C50.2109 20.7855 50.3166 20.8661 50.3826 20.9762C50.4485 21.0864 50.4696 21.2177 50.4414 21.3429C50.4131 21.4682 50.3378 21.5778 50.231 21.649L38.055 29.227L49.72 22.492C49.8334 22.4296 49.9665 22.4135 50.0915 22.4472C50.2164 22.481 50.3235 22.5618 50.39 22.6728C50.4566 22.7838 50.4775 22.9163 50.4484 23.0424C50.4193 23.1685 50.3425 23.2784 50.234 23.349L37.349 31.382L49.72 24.24C49.8333 24.1765 49.9668 24.1596 50.0924 24.1929C50.2179 24.2261 50.3256 24.3069 50.3926 24.4181C50.4597 24.5293 50.4808 24.6622 50.4516 24.7888C50.4224 24.9153 50.345 25.0255 50.236 25.096L33.6 35.6L49.72 26.3C49.8333 26.2395 49.9654 26.2249 50.0891 26.2592C50.2129 26.2935 50.3186 26.3741 50.3846 26.4842C50.4505 26.5944 50.4716 26.7257 50.4434 26.8509C50.4151 26.9762 50.3398 27.0858 50.233 27.157L38.1 34.7L49.72 27.993C49.8333 27.9295 49.9668 27.9126 50.0924 27.9459C50.2179 27.9791 50.3256 28.0599 50.3926 28.1711C50.4597 28.2823 50.4808 28.4152 50.4516 28.5418C50.4224 28.6683 50.345 28.7785 50.236 28.849L36.565 37.449L49.72 29.858C49.8338 29.7899 49.97 29.7697 50.0986 29.8019C50.2273 29.8342 50.3379 29.9162 50.406 30.03C50.4742 30.1438 50.4943 30.28 50.4621 30.4086C50.4298 30.5373 50.3478 30.6479 50.234 30.716L42.553 35.5L49.72 31.362C49.8332 31.2957 49.9678 31.2765 50.095 31.3086C50.2222 31.3406 50.3317 31.4213 50.3999 31.5334C50.4681 31.6454 50.4896 31.7797 50.4596 31.9074C50.4297 32.0351 50.3509 32.1459 50.24 32.216L37.9 40.152L49.72 33.327C49.833 33.2638 49.9661 33.247 50.0913 33.2799C50.2165 33.3129 50.324 33.3932 50.3913 33.5038C50.4585 33.6144 50.4802 33.7468 50.4518 33.8731C50.4234 33.9994 50.3471 34.1098 50.239 34.181L42.071 39.4L49.72 34.984C49.8333 34.9205 49.9668 34.9036 50.0924 34.9369C50.2179 34.9701 50.3256 35.0509 50.3926 35.1621C50.4597 35.2733 50.4808 35.4062 50.4516 35.5328C50.4224 35.6593 50.345 35.7695 50.236 35.84L46.883 37.958L49.72 36.32C49.8335 36.2515 49.9696 36.2308 50.0984 36.2626C50.2271 36.2944 50.338 36.376 50.4065 36.4895C50.4751 36.603 50.4957 36.7391 50.4639 36.8679C50.4322 36.9966 50.3505 37.1075 50.237 37.176L48.809 38.076L49.72 37.551C49.8321 37.4898 49.9634 37.4738 50.0869 37.5063C50.2105 37.5389 50.3169 37.6175 50.3843 37.7259C50.4517 37.8344 50.4751 37.9646 50.4495 38.0898C50.424 38.2149 50.3515 38.3256 50.247 38.399L43.618 42.821L49.718 39.299C49.8301 39.2378 49.9614 39.2218 50.0849 39.2543C50.2085 39.2869 50.3149 39.3655 50.3823 39.4739C50.4497 39.5824 50.4731 39.7126 50.4475 39.8378C50.422 39.9629 50.3495 40.0736 50.245 40.147L46.2 42.853L49.725 40.817C49.837 40.7541 49.9688 40.7366 50.0933 40.7682C50.2178 40.7999 50.3253 40.8782 50.3936 40.987C50.4619 41.0958 50.4857 41.2267 50.4601 41.3525C50.4344 41.4784 50.3614 41.5896 50.256 41.663L47.156 43.77L49.721 42.289C49.8306 42.2268 49.9596 42.2083 50.0823 42.2371C50.2049 42.2659 50.3122 42.34 50.3826 42.4445C50.453 42.549 50.4813 42.6763 50.4619 42.8008C50.4425 42.9253 50.3769 43.0379 50.278 43.116L45.36 46.954L49.72 44.437C49.8286 44.3752 49.9565 44.3563 50.0784 44.384C50.2002 44.4118 50.3073 44.4842 50.3784 44.587C50.4496 44.6897 50.4796 44.8154 50.4627 44.9392C50.4458 45.0631 50.3831 45.1761 50.287 45.256L47.555 47.5L49.72 46.25C49.8238 46.1913 49.9452 46.1716 50.0623 46.1945C50.1794 46.2174 50.2844 46.2814 50.3584 46.375C50.4324 46.4685 50.4705 46.5855 50.4659 46.7047C50.4612 46.8239 50.4141 46.9375 50.333 47.025L48.633 48.831L49.723 48.202C49.8247 48.1434 49.9437 48.1225 50.0593 48.1428C50.1748 48.1631 50.2795 48.2234 50.3551 48.3132C50.4307 48.403 50.4723 48.5164 50.4726 48.6338C50.473 48.7511 50.4321 48.8648 50.357 48.955L49.865 49.544C49.9723 49.5843 50.0619 49.6611 50.118 49.761C50.1841 49.8756 50.202 50.0118 50.1679 50.1396C50.1338 50.2674 50.0504 50.3765 49.936 50.443L48.277 51.4C48.1754 51.458 48.0566 51.4785 47.9414 51.4579C47.8262 51.4373 47.7219 51.377 47.6466 51.2874C47.5713 51.1978 47.5298 51.0847 47.5293 50.9677C47.5288 50.8507 47.5694 50.7372 47.644 50.647L47.789 50.474L46.176 51.404C46.0722 51.4628 45.9508 51.4825 45.8337 51.4595C45.7166 51.4366 45.6116 51.3726 45.5376 51.279C45.4636 51.1855 45.4255 51.0685 45.4301 50.9493C45.4348 50.8301 45.4819 50.7165 45.563 50.629L47.263 48.822L42.784 51.407C42.6754 51.4688 42.5475 51.4877 42.4257 51.46C42.3038 51.4322 42.1968 51.3598 42.1256 51.2571C42.0545 51.1543 42.0244 51.0286 42.0413 50.9048C42.0582 50.7809 42.1209 50.6679 42.217 50.588L44.946 48.347L39.646 51.41C39.5364 51.4735 39.4068 51.493 39.2833 51.4646C39.1599 51.4362 39.0518 51.362 38.981 51.257C38.9101 51.152 38.8818 51.024 38.9016 50.8989C38.9215 50.7738 38.9881 50.6609 39.088 50.583L44 46.744L35.912 51.413C35.8001 51.476 35.6682 51.4934 35.5437 51.4618C35.4192 51.4301 35.3117 51.3518 35.2434 51.243C35.1752 51.1342 35.1514 51.0033 35.177 50.8775C35.2026 50.7516 35.2757 50.6405 35.381 50.567L38.481 48.46L33.362 51.415C33.2496 51.4789 33.1169 51.4968 32.9916 51.465C32.8663 51.4331 32.7582 51.3539 32.69 51.2441C32.6218 51.1342 32.5988 51.0023 32.6259 50.8758C32.6529 50.7494 32.7279 50.6384 32.835 50.566L36.889 47.861L30.728 51.417C30.6156 51.4809 30.4829 51.4988 30.3576 51.467C30.2323 51.4351 30.1242 51.3559 30.056 51.2461C29.9878 51.1362 29.9648 51.0043 29.9919 50.8778C30.0189 50.7514 30.0939 50.6404 30.201 50.568L36.828 46.147L27.7 51.42C27.6438 51.454 27.5815 51.4765 27.5166 51.4864C27.4516 51.4962 27.3854 51.4932 27.3217 51.4774C27.2579 51.4617 27.1979 51.4336 27.145 51.3946C27.0921 51.3557 27.0475 51.3067 27.0135 51.2505C26.9796 51.1943 26.957 51.132 26.9472 51.067C26.9373 51.0021 26.9403 50.9359 26.9561 50.8722C26.9718 50.8084 27 50.7484 27.0389 50.6955C27.0778 50.6426 27.1268 50.598 27.183 50.564L28.618 49.657L25.562 51.422C25.4485 51.4906 25.3124 51.5112 25.1837 51.4794C25.0549 51.4477 24.9441 51.366 24.8755 51.2525C24.807 51.139 24.7863 51.0029 24.8181 50.8742C24.8499 50.7454 24.9315 50.6346 25.045 50.566L28.391 48.453L23.245 51.424C23.132 51.4872 22.9989 51.5041 22.8737 51.4711C22.7485 51.4381 22.641 51.3579 22.5738 51.2472C22.5065 51.1366 22.4848 51.0042 22.5132 50.8779C22.5416 50.7516 22.6179 50.6412 22.726 50.57L30.9 45.35L20.371 51.426C20.2579 51.4923 20.1232 51.5115 19.996 51.4795C19.8688 51.4474 19.7594 51.3667 19.6912 51.2547C19.6229 51.1426 19.6015 51.0083 19.6314 50.8806C19.6613 50.7529 19.7402 50.6421 19.851 50.572L32.2 42.63L16.96 51.43C16.9037 51.4638 16.8412 51.4862 16.7762 51.4959C16.7113 51.5056 16.645 51.5024 16.5812 51.4864C16.4525 51.4543 16.3418 51.3723 16.2735 51.2585C16.2397 51.2022 16.2173 51.1397 16.2076 51.0747C16.1979 51.0097 16.2012 50.9435 16.2171 50.8797C16.2493 50.751 16.3312 50.6403 16.445 50.572L24.12 45.795L14.357 51.432C14.2792 51.4777 14.1903 51.5013 14.1 51.5Z" fill="#925C4D"/>
<path d="M49.7569 11.47C49.67 11.4702 49.5845 11.4478 49.5089 11.405C49.4333 11.3621 49.3702 11.3002 49.3258 11.2255C49.2814 11.1508 49.2572 11.0658 49.2556 10.9789C49.2541 10.8921 49.2752 10.8062 49.3169 10.73L49.6809 10.065L47.9339 11.073C47.8298 11.1332 47.7074 11.1538 47.5893 11.1311C47.4711 11.1084 47.3651 11.0438 47.2908 10.9492C47.2164 10.8547 47.1786 10.7365 47.1843 10.6163C47.19 10.4961 47.2389 10.3821 47.3219 10.295L48.1849 9.395L46.9609 10.101C46.8563 10.1614 46.7333 10.1818 46.6147 10.1585C46.4961 10.1352 46.39 10.0697 46.316 9.97422C46.2419 9.87872 46.205 9.75963 46.212 9.639C46.2189 9.51836 46.2694 9.40433 46.3539 9.318L48.0539 7.586L45.7659 8.9C45.6574 8.96263 45.5293 8.98221 45.407 8.95488C45.2847 8.92756 45.1771 8.8553 45.1056 8.75244C45.034 8.64957 45.0037 8.52358 45.0206 8.39942C45.0375 8.27526 45.1005 8.16198 45.1969 8.082L46.0529 7.375L44.9029 8.038C44.7971 8.09833 44.6729 8.11795 44.5536 8.09318C44.4344 8.06841 44.3282 8.00095 44.2552 7.90347C44.1821 7.80598 44.1472 7.68519 44.1569 7.56376C44.1666 7.44234 44.2203 7.32863 44.3079 7.244L47.2899 4.392L43.4609 6.6C43.3561 6.66119 43.2327 6.68218 43.1135 6.65905C42.9944 6.63593 42.8878 6.57027 42.8135 6.47431C42.7392 6.37836 42.7023 6.25866 42.7098 6.13754C42.7172 6.01642 42.7684 5.90214 42.8539 5.816L45.3299 3.3L42.0499 5.19C41.9429 5.25081 41.8172 5.26999 41.6969 5.24389C41.5766 5.21779 41.4702 5.14823 41.398 5.04854C41.3258 4.94885 41.2929 4.82603 41.3056 4.70359C41.3183 4.58116 41.3758 4.46773 41.4669 4.385L42.0299 3.885L41.3209 4.293C41.2305 4.34519 41.126 4.36775 41.0221 4.35752C40.9181 4.34729 40.82 4.30478 40.7415 4.23595C40.663 4.16713 40.608 4.07544 40.5842 3.97376C40.5604 3.87208 40.5691 3.76551 40.6089 3.669L41.2269 2.183C41.1095 2.2185 40.983 2.20955 40.8717 2.15786C40.7604 2.10616 40.672 2.01534 40.6233 1.90267C40.5746 1.79001 40.5691 1.66338 40.6078 1.54689C40.6464 1.43041 40.7266 1.33221 40.8329 1.271L41.9939 0.600003C42.0844 0.547816 42.1889 0.525256 42.2928 0.535488C42.3967 0.54572 42.4948 0.58823 42.5734 0.657055C42.6519 0.72588 42.7069 0.817564 42.7307 0.919243C42.7545 1.02092 42.7458 1.12749 42.7059 1.224L42.0999 2.688L45.7189 0.600003C45.8252 0.544998 45.9476 0.529905 46.064 0.557464C46.1804 0.585022 46.2831 0.653405 46.3534 0.750201C46.4237 0.846996 46.457 0.965788 46.4471 1.08501C46.4373 1.20424 46.3851 1.316 46.2999 1.4L45.7379 1.9L48.0059 0.600003C48.1106 0.540368 48.2333 0.52052 48.3514 0.544111C48.4695 0.567701 48.5752 0.633143 48.6489 0.728403C48.7226 0.823664 48.7595 0.942338 48.7527 1.0626C48.7459 1.18287 48.6959 1.29664 48.6119 1.383L46.1369 3.9L50.3729 1.455C50.4788 1.3902 50.605 1.36711 50.727 1.39022C50.849 1.41333 50.958 1.48099 51.0328 1.58004C51.1077 1.67908 51.143 1.80243 51.1319 1.92608C51.1209 2.04972 51.0642 2.16483 50.9729 2.249L47.9859 5.108L50.7199 3.531C50.8286 3.46807 50.957 3.44833 51.0795 3.4757C51.2021 3.50307 51.3098 3.57555 51.3814 3.67873C51.4529 3.78192 51.4831 3.90825 51.4657 4.03262C51.4484 4.15699 51.385 4.27029 51.2879 4.35L50.4319 5.058L50.7199 4.892C50.8245 4.83241 50.947 4.81252 51.0651 4.836C51.1831 4.85947 51.2887 4.92474 51.3625 5.0198C51.4363 5.11487 51.4733 5.23337 51.4668 5.35354C51.4603 5.47371 51.4106 5.5875 51.3269 5.674L49.6269 7.405L50.7179 6.776C50.8222 6.71578 50.9447 6.6952 51.0629 6.71805C51.1811 6.7409 51.2871 6.80565 51.3614 6.90039C51.4358 6.99513 51.4734 7.11351 51.4674 7.23377C51.4614 7.35403 51.4123 7.46809 51.3289 7.555L50.4669 8.455L50.7179 8.311C50.8122 8.25687 50.9216 8.23495 51.0295 8.24856C51.1373 8.26217 51.2378 8.31057 51.3157 8.38642C51.3936 8.46228 51.4447 8.56146 51.4611 8.66893C51.4776 8.7764 51.4586 8.88631 51.4069 8.982L50.9609 9.802C51.066 9.81273 51.165 9.85646 51.2437 9.92694C51.3224 9.99742 51.3768 10.091 51.399 10.1943C51.4212 10.2976 51.4101 10.4052 51.3674 10.5019C51.3246 10.5985 51.2523 10.679 51.1609 10.732L50.0009 11.402C49.927 11.4457 49.8428 11.4691 49.7569 11.47Z" fill="#E3C94D"/>
<path d="M44.43 52.47C44.3281 52.47 44.2286 52.4388 44.145 52.3806C44.0613 52.3224 43.9973 52.24 43.9618 52.1445C43.9262 52.049 43.9207 51.9449 43.9459 51.8462C43.9712 51.7474 44.026 51.6587 44.103 51.592L46.665 49.375L41.713 52.233C41.6033 52.2956 41.474 52.3144 41.351 52.2855C41.228 52.2567 41.1205 52.1824 41.0501 52.0775C40.9797 51.9726 40.9516 51.845 40.9714 51.7202C40.9912 51.5955 41.0576 51.4829 41.157 51.405L44.727 48.653L41.28 50.643C41.1703 50.707 41.0403 50.7267 40.9165 50.6983C40.7927 50.6699 40.6844 50.5955 40.6135 50.4901C40.5426 50.3847 40.5144 50.2563 40.5348 50.1309C40.5551 50.0055 40.6224 49.8926 40.723 49.815L44.879 46.573L43.158 47.566C43.0509 47.627 42.925 47.6462 42.8046 47.62C42.6841 47.5938 42.5776 47.5241 42.5054 47.4241C42.4332 47.3242 42.4005 47.2011 42.4136 47.0786C42.4266 46.956 42.4845 46.8425 42.576 46.76L46.676 43.116C46.6242 43.0035 46.6159 42.8758 46.6529 42.7575C46.6898 42.6393 46.7693 42.539 46.876 42.476L48.397 41.598C48.5042 41.5371 48.6301 41.5178 48.7505 41.544C48.871 41.5702 48.9775 41.6399 49.0497 41.7399C49.1218 41.8398 49.1545 41.9629 49.1415 42.0855C49.1285 42.208 49.0706 42.3215 48.979 42.404L46.919 44.24L50.6 42.113C50.7097 42.0495 50.8393 42.03 50.9627 42.0584C51.0862 42.0868 51.1942 42.161 51.2651 42.266C51.3359 42.371 51.3643 42.499 51.3444 42.6241C51.3245 42.7492 51.2579 42.8621 51.158 42.94L47 46.184L50.716 44.039C50.8257 43.9776 50.9545 43.9597 51.0767 43.989C51.199 44.0183 51.3057 44.0925 51.3757 44.1969C51.4456 44.3013 51.4737 44.4282 51.4544 44.5524C51.435 44.6766 51.3695 44.7889 51.271 44.867L47.701 47.62L50.716 45.88C50.8236 45.8193 50.9499 45.8005 51.0705 45.8273C51.1911 45.8542 51.2974 45.9247 51.3691 46.0253C51.4408 46.1259 51.4727 46.2495 51.4586 46.3723C51.4446 46.495 51.3856 46.6082 51.293 46.69L48.732 48.906L50.716 47.761C50.8224 47.7025 50.9465 47.6847 51.0651 47.7109C51.1837 47.7371 51.2887 47.8056 51.3604 47.9036C51.4322 48.0016 51.4658 48.1223 51.4551 48.2433C51.4444 48.3643 51.39 48.4772 51.302 48.561L50.596 49.203L50.716 49.134C50.8171 49.0763 50.9352 49.0557 51.0498 49.0756C51.1645 49.0956 51.2686 49.155 51.3442 49.2435C51.4198 49.332 51.4621 49.4441 51.4639 49.5605C51.4657 49.6769 51.4269 49.7902 51.354 49.881L50.828 50.532C50.9206 50.5611 51.0028 50.6166 51.0644 50.6916C51.126 50.7666 51.1645 50.8579 51.1751 50.9544C51.1857 51.0509 51.168 51.1484 51.1241 51.2349C51.0802 51.3215 51.0121 51.3935 50.928 51.442L49.273 52.398C49.172 52.4557 49.0539 52.4764 48.9393 52.4564C48.8246 52.4364 48.7205 52.377 48.6449 52.2885C48.5693 52.2 48.527 52.0879 48.5252 51.9716C48.5234 51.8552 48.5622 51.7418 48.635 51.651L48.882 51.351L47.06 52.4C46.9536 52.4586 46.8296 52.4764 46.711 52.4501C46.5924 52.4239 46.4874 52.3554 46.4157 52.2574C46.3439 52.1594 46.3102 52.0387 46.321 51.9177C46.3317 51.7967 46.3861 51.6838 46.474 51.6L47.174 50.96L44.68 52.4C44.6045 52.4454 44.5182 52.4696 44.43 52.47Z" fill="#E3C94D"/>
<path d="M48.6001 33.426C48.5053 33.4263 48.4123 33.3995 48.3321 33.349C48.2519 33.2984 48.1877 33.2261 48.1471 33.1405C48.1064 33.0549 48.0909 32.9594 48.1024 32.8653C48.1139 32.7712 48.152 32.6823 48.2121 32.609L48.8561 31.819L47.6181 32.534C47.5161 32.5924 47.3968 32.6131 47.2812 32.5924C47.1655 32.5716 47.0608 32.5108 46.9855 32.4206C46.9102 32.3304 46.8691 32.2165 46.8694 32.099C46.8697 31.9815 46.9113 31.8679 46.9871 31.778L48.7191 29.738L46.2801 31.146C46.1749 31.2051 46.0519 31.2243 45.9337 31.1998C45.8156 31.1754 45.7103 31.1091 45.6372 31.0131C45.5641 30.9171 45.5282 30.7979 45.536 30.6775C45.5439 30.5571 45.5951 30.4436 45.6801 30.358L47.8801 28.172L45.3001 29.664C45.1936 29.7233 45.0692 29.7417 44.9501 29.7158C44.8311 29.6898 44.7256 29.6213 44.6535 29.523C44.5814 29.4248 44.5477 29.3036 44.5587 29.1823C44.5696 29.0609 44.6245 28.9477 44.7131 28.864L47.2081 26.593L45.2801 27.7C45.1739 27.7544 45.0517 27.7689 44.9357 27.7411C44.8197 27.7133 44.7175 27.645 44.6474 27.5484C44.5774 27.4518 44.5442 27.3334 44.5539 27.2145C44.5635 27.0956 44.6154 26.984 44.7001 26.9L47.0661 24.778L45.2801 25.8C45.1739 25.8544 45.0517 25.8689 44.9357 25.8411C44.8197 25.8133 44.7175 25.745 44.6474 25.6484C44.5774 25.5518 44.5442 25.4334 44.5539 25.3145C44.5635 25.1956 44.6154 25.084 44.7001 25L46.6751 23.251L45.3301 24.026C45.2236 24.0853 45.0992 24.1037 44.9801 24.0778C44.8611 24.0518 44.7556 23.9833 44.6835 23.885C44.6114 23.7868 44.5777 23.6656 44.5887 23.5443C44.5996 23.4229 44.6545 23.3097 44.7431 23.226L46.8961 21.259L46.8861 21.242C46.82 21.1274 46.802 20.9912 46.8362 20.8634C46.8703 20.7356 46.9537 20.6265 47.0681 20.56L48.7241 19.604C48.8305 19.5447 48.9549 19.5263 49.074 19.5522C49.193 19.5782 49.2985 19.6467 49.3706 19.745C49.4427 19.8432 49.4764 19.9644 49.4655 20.0857C49.4545 20.2071 49.3996 20.3203 49.3111 20.404L48.8111 20.864L50.4591 19.912C50.5663 19.8499 50.6928 19.8299 50.814 19.8558C50.9352 19.8818 51.0425 19.9518 51.115 20.0523C51.1875 20.1528 51.2201 20.2767 51.2064 20.3999C51.1927 20.5231 51.1338 20.6368 51.0411 20.719L49.0661 22.47L50.7241 21.513C50.8304 21.4559 50.9538 21.4393 51.0715 21.4661C51.1891 21.4928 51.2932 21.5613 51.3643 21.6588C51.4355 21.7562 51.469 21.8762 51.4586 21.9964C51.4483 22.1167 51.3948 22.2291 51.3081 22.313L48.9401 24.435L50.7201 23.407C50.8265 23.3477 50.9509 23.3293 51.07 23.3552C51.189 23.3812 51.2945 23.4497 51.3666 23.548C51.4387 23.6462 51.4724 23.7674 51.4615 23.8887C51.4505 24.0101 51.3956 24.1233 51.3071 24.207L48.8071 26.478L50.7151 25.378C50.8201 25.3196 50.9426 25.301 51.0603 25.3256C51.1779 25.3502 51.2827 25.4163 51.3556 25.5119C51.4284 25.6075 51.4644 25.7261 51.457 25.846C51.4495 25.9659 51.3992 26.0792 51.3151 26.165L49.1151 28.352L50.7151 27.429C50.817 27.3706 50.9363 27.3499 51.052 27.3706C51.1676 27.3913 51.2723 27.4522 51.3476 27.5424C51.4229 27.6326 51.464 27.7465 51.4637 27.864C51.4635 27.9815 51.4218 28.0951 51.3461 28.185L49.6141 30.225L50.7141 29.59C50.8153 29.5318 50.9338 29.5109 51.0488 29.531C51.1639 29.551 51.2683 29.6106 51.344 29.6996C51.4197 29.7886 51.4618 29.9012 51.4631 30.018C51.4644 30.1348 51.4247 30.2484 51.3511 30.339L50.7081 31.128H50.7151C50.8293 31.0682 50.9623 31.0549 51.0861 31.0908C51.21 31.1268 51.3152 31.2092 51.3797 31.3208C51.4442 31.4325 51.4631 31.5647 51.4325 31.69C51.4018 31.8153 51.3239 31.9238 51.2151 31.993L48.8481 33.36C48.7725 33.4032 48.6871 33.4259 48.6001 33.426Z" fill="#E3C94D"/>
<path d="M24.84 30.47C24.7336 30.47 24.63 30.436 24.5443 30.373C24.4585 30.3101 24.3951 30.2214 24.3632 30.1199C24.3313 30.0184 24.3326 29.9094 24.3669 29.8087C24.4012 29.708 24.4668 29.6209 24.554 29.56L30.962 25.1L23.189 29.587C23.0765 29.649 22.9444 29.6653 22.8202 29.6325C22.6959 29.5997 22.5891 29.5203 22.5218 29.4108C22.4545 29.3014 22.432 29.1702 22.4588 29.0446C22.4857 28.9189 22.5599 28.8084 22.666 28.736L24.896 27.275L22.778 28.5C22.6661 28.563 22.5342 28.5804 22.4097 28.5488C22.2852 28.5171 22.1777 28.4388 22.1094 28.33C22.0411 28.2212 22.0174 28.0903 22.043 27.9645C22.0686 27.8386 22.1416 27.7274 22.247 27.654L26.99 24.43L21.877 27.382C21.7642 27.4476 21.6301 27.4665 21.5035 27.4346C21.3769 27.4027 21.2678 27.3226 21.1995 27.2114C21.1312 27.1001 21.1092 26.9665 21.138 26.8392C21.1669 26.7119 21.2444 26.6009 21.354 26.53L21.628 26.353L20.906 26.769C20.7939 26.8329 20.6614 26.851 20.5363 26.8194C20.4111 26.7879 20.303 26.7092 20.2346 26.5998C20.1661 26.4904 20.1426 26.3588 20.169 26.2325C20.1953 26.1061 20.2695 25.9949 20.376 25.922L25.359 22.545L19.394 25.989C19.2815 26.051 19.1494 26.0673 19.0252 26.0345C18.9009 26.0017 18.7941 25.9223 18.7268 25.8128C18.6595 25.7034 18.637 25.5722 18.6638 25.4466C18.6907 25.3209 18.7649 25.2104 18.871 25.138L20.619 24L19.28 24.773C19.1675 24.8398 19.0333 24.8599 18.9062 24.8289C18.7791 24.7979 18.6692 24.7183 18.6001 24.6072C18.531 24.4961 18.5082 24.3623 18.5366 24.2346C18.565 24.1069 18.6423 23.9954 18.752 23.924L21.552 22.054L19.28 23.36C19.1685 23.4223 19.0373 23.4396 18.9134 23.4082C18.7896 23.3769 18.6824 23.2993 18.614 23.1914C18.5455 23.0836 18.5209 22.9536 18.5453 22.8282C18.5697 22.7027 18.6411 22.5914 18.745 22.517L21.6 20.543L19.28 21.879C19.1713 21.9401 19.0437 21.9583 18.9222 21.9301C18.8008 21.9019 18.6942 21.8294 18.6235 21.7267C18.5527 21.6241 18.5229 21.4987 18.5398 21.3751C18.5568 21.2516 18.6192 21.1389 18.715 21.059L22.986 17.576L19.28 19.716C19.1756 19.7756 19.0531 19.7955 18.9352 19.7721C18.8172 19.7488 18.7117 19.6837 18.6378 19.5888C18.5639 19.4939 18.5267 19.3756 18.533 19.2555C18.5393 19.1355 18.5886 19.0217 18.672 18.935L22.554 14.945C22.4887 14.8304 22.4712 14.6947 22.5055 14.5673C22.5398 14.44 22.623 14.3313 22.737 14.265L23.892 13.598C23.9965 13.5384 24.1189 13.5185 24.2368 13.5419C24.3548 13.5652 24.4604 13.6303 24.5342 13.7252C24.6081 13.8201 24.6453 13.9384 24.639 14.0585C24.6327 14.1786 24.5834 14.2924 24.5 14.379L21.9 17.046L27.878 13.6C27.9868 13.5379 28.1149 13.5189 28.237 13.5467C28.3591 13.5745 28.4663 13.6471 28.5375 13.7502C28.6086 13.8532 28.6385 13.9792 28.6212 14.1033C28.6039 14.2273 28.5407 14.3403 28.444 14.42L24.17 17.9L31.626 13.6C31.7375 13.5377 31.8687 13.5204 31.9926 13.5518C32.1164 13.5831 32.2236 13.6607 32.2921 13.7686C32.3605 13.8764 32.3851 14.0064 32.3607 14.1319C32.3364 14.2573 32.2649 14.3686 32.161 14.443L29.312 16.416L34.191 13.6C34.3033 13.5349 34.4365 13.5161 34.5625 13.5474C34.6884 13.5787 34.7973 13.6578 34.866 13.768C34.9347 13.8781 34.9578 14.0106 34.9306 14.1375C34.9034 14.2644 34.8278 14.3758 34.72 14.448L31.926 16.316L36.364 13.754C36.4769 13.6884 36.6109 13.6695 36.7375 13.7014C36.8641 13.7333 36.9732 13.8134 37.0415 13.9247C37.1098 14.0359 37.1319 14.1695 37.103 14.2968C37.0741 14.4241 36.9966 14.5351 36.887 14.606L35.136 15.745L36.9 14.727C37.012 14.6641 37.1438 14.6466 37.2683 14.6782C37.3928 14.7099 37.5003 14.7882 37.5686 14.897C37.6369 15.0058 37.6607 15.1367 37.6351 15.2625C37.6094 15.3884 37.5364 15.4996 37.431 15.573L32.448 18.949L37.549 16C37.6615 15.9397 37.7927 15.9246 37.9159 15.9579C38.0391 15.9912 38.1449 16.0703 38.2117 16.1791C38.2784 16.2879 38.301 16.4181 38.2749 16.543C38.2487 16.6679 38.1758 16.7781 38.071 16.851L37.781 17.041L38.29 16.747C38.402 16.6841 38.5338 16.6666 38.6583 16.6982C38.7828 16.7299 38.8903 16.8082 38.9586 16.917C39.0269 17.0258 39.0507 17.1567 39.0251 17.2825C38.9994 17.4084 38.9264 17.5196 38.821 17.593L34.087 20.81L39.844 17.487C39.9566 17.425 40.0886 17.4087 40.2129 17.4416C40.3371 17.4744 40.4439 17.5537 40.5112 17.6632C40.5785 17.7726 40.601 17.9038 40.5742 18.0295C40.5473 18.1551 40.4731 18.2656 40.367 18.338L38.137 19.8L40.7 18.32C40.8116 18.256 40.9436 18.2374 41.0686 18.2682C41.1935 18.299 41.3018 18.3768 41.3708 18.4854C41.4399 18.594 41.4644 18.725 41.4393 18.8512C41.4142 18.9774 41.3414 19.0891 41.236 19.163L34.83 23.625L40.72 20.225C40.8305 20.1622 40.9606 20.1438 41.0842 20.1736C41.2077 20.2033 41.3152 20.2789 41.385 20.3851C41.4548 20.4913 41.4815 20.62 41.4598 20.7452C41.438 20.8704 41.3695 20.9826 41.268 21.059L35.746 25.147L40.72 22.276C40.8291 22.2141 40.9575 22.1954 41.0797 22.2237C41.2019 22.252 41.3091 22.3252 41.3798 22.4288C41.4506 22.5324 41.4798 22.6589 41.4617 22.783C41.4435 22.9071 41.3794 23.0199 41.282 23.099L37.337 26.264L40.721 24.311C40.83 24.2494 40.9581 24.2309 41.0801 24.2591C41.202 24.2874 41.3089 24.3604 41.3797 24.4637C41.4504 24.567 41.4798 24.693 41.4621 24.817C41.4444 24.9409 41.3809 25.0537 41.284 25.133L37.729 28C37.7474 28.0216 37.7635 28.0451 37.777 28.07C37.8434 28.1847 37.8615 28.3211 37.8274 28.4492C37.7933 28.5773 37.7097 28.6865 37.595 28.753L34.729 30.4C34.62 30.4628 34.4913 30.4821 34.3687 30.4543C34.246 30.4264 34.1384 30.3533 34.0672 30.2496C33.9961 30.1459 33.9666 30.0191 33.9847 29.8947C34.0029 29.7702 34.0672 29.6571 34.165 29.578L35.618 28.408L32.167 30.4C32.058 30.4616 31.9299 30.4801 31.808 30.4519C31.686 30.4236 31.5791 30.3506 31.5084 30.2473C31.4376 30.144 31.4082 30.018 31.4259 29.894C31.4436 29.7701 31.5072 29.6573 31.604 29.578L35.548 26.414L28.648 30.4C28.5376 30.4628 28.4074 30.4812 28.2839 30.4515C28.1604 30.4217 28.0528 30.3461 27.983 30.2399C27.9133 30.1337 27.8865 30.005 27.9083 29.8798C27.93 29.7547 27.9985 29.6425 28.1 29.566L33.621 25.477L25.09 30.4C25.0143 30.4449 24.9281 30.4691 24.84 30.47Z" fill="#D8ABA1"/>
<path d="M51.7249 4.36C51.7249 3.231 51.9139 1.93 50.8979 1.144C48.6279 0.0069955 45.7699 0.883995 43.2929 0.623995C42.3329 0.623995 40.9449 0.641995 40.4609 1.524H26.6679C24.9679 1.483 23.1679 1.231 21.8679 2.667H17.6869C17.3759 0.851995 14.0549 1.542 12.7999 1.527C5.83492 1.427 7.39991 8.8 7.27091 13.542C7.29791 27.29 7.22991 41.049 7.27091 54.793C7.12791 60.533 13.9139 59.384 17.8039 59.423C27.0899 59.401 36.3779 59.459 45.6619 59.423C49.6199 59.408 48.6619 54.977 48.7289 52.282C50.2899 52.268 51.9549 51.127 51.7289 49.417C51.3719 47.668 52.6769 42.165 50.7289 41.765V33.065C51.0825 32.9419 51.3791 32.6942 51.5631 32.3682C51.7472 32.0422 51.8062 31.6603 51.7289 31.294V23.392C51.5579 22.21 52.3339 20.069 50.7339 19.74V11.14C52.6709 10.17 51.3659 6.259 51.7249 4.36ZM17.7679 3.33H21.2999C20.0109 4.868 20.2829 6.555 20.2839 8.33C18.7549 6.8 17.2939 5.753 17.7679 3.33ZM12.7239 2.472H12.9999C18.4729 1.753 14.9439 4.284 16.9849 6.956C17.8409 7.923 19.2849 9.922 20.7739 9.34799C22.3669 8.733 21.5329 6.627 21.7479 5.338C21.8458 4.61016 22.181 3.93491 22.7014 3.4168C23.2219 2.89869 23.8986 2.56661 24.6269 2.472H40.2649C39.7749 4.8 42.2469 5.89999 43.5089 7.457C45.3339 8.88599 46.6029 11.838 49.2709 11.385V19.691C48.6062 19.6688 47.9533 19.871 47.4174 20.265C46.8816 20.659 46.4939 21.2219 46.3169 21.863C44.1609 22.314 44.1289 24.52 44.2759 26.308C44.3059 28.132 43.7599 31.025 46.2829 31.285C46.3449 32.805 47.9149 33.499 49.2759 33.32V41.7C47.1709 41.518 46.0259 43.509 44.6449 44.756C43.2309 46.648 40.1179 47.982 40.2519 50.574H33.7309V44.932C33.7309 44.586 33.3709 44.489 33.0759 44.515C32.8229 44.538 32.2689 44.728 32.2689 45.068V50.576H22.7279C22.6099 49.634 22.9729 48.453 22.5699 47.626C20.7079 47.084 21.3809 49.488 21.2699 50.576H18.7239V44.806C18.7239 44.533 17.2759 44.749 17.2759 45.194V50.576C15.7489 50.598 14.2759 50.531 12.7239 50.559V2.472ZM50.2329 32.439C50.2329 32.439 50.1499 32.594 50.0949 32.687C49.812 32.7483 49.519 32.746 49.237 32.6804C48.9551 32.6148 48.6912 32.4874 48.4644 32.3075C48.2376 32.1276 48.0535 31.8996 47.9255 31.6399C47.7974 31.3803 47.7286 31.0955 47.7239 30.806C47.7239 30.718 47.5049 30.692 47.4659 30.692C44.6419 30.599 46.0379 25.677 45.7239 23.806C45.7211 23.5079 45.7939 23.2139 45.9356 22.9516C46.0772 22.6893 46.2831 22.4671 46.5339 22.306C46.8089 22.306 47.7239 22.206 47.7239 21.806C47.6985 21.5892 47.7257 21.3694 47.8032 21.1653C47.8808 20.9612 48.0063 20.7788 48.1693 20.6335C48.3322 20.4882 48.5278 20.3843 48.7394 20.3306C48.951 20.2769 49.1724 20.275 49.3849 20.325C49.4528 20.3798 49.5309 20.4205 49.6147 20.4447C49.6985 20.4689 49.7863 20.4762 49.8729 20.466C49.9972 20.542 50.0994 20.6492 50.1696 20.7769C50.2397 20.9046 50.2754 21.0483 50.2729 21.194C50.2219 24.938 50.3739 28.706 50.2329 32.439ZM10.0729 3.084C10.4257 2.8169 10.8371 2.63762 11.2729 2.561V50.71C10.3198 50.8503 9.43173 51.2764 8.72591 51.932V8.64299C8.72891 6.759 8.37991 4.376 10.0729 3.084ZM46.0409 58.576C34.8289 58.66 23.5519 58.521 12.3169 58.576C11.7441 58.5526 11.1843 58.3976 10.681 58.123C10.1777 57.8484 9.74435 57.4617 9.41454 56.9928C9.08472 56.5238 8.86729 55.9852 8.77909 55.4187C8.69089 54.8522 8.73428 54.273 8.90592 53.726C9.78592 50.909 12.7379 51.426 15.0149 51.426C20.8502 51.426 26.6836 51.426 32.5149 51.426C32.7326 51.5125 32.9752 51.5125 33.1929 51.426H40.3199C40.8779 53.133 45.6269 51.954 47.2789 52.316C46.9729 53.951 48.1849 58.251 46.0409 58.576ZM49.5649 51.642C49.2646 51.7206 48.9524 51.7433 48.6439 51.709C48.4519 51.503 47.9559 51.543 47.6149 51.709C45.9069 51.699 44.1929 51.725 42.4879 51.709C41.7339 51.618 41.7239 50.891 41.7239 50.304C41.6228 49.908 41.6394 49.4911 41.7717 49.1044C41.9041 48.7177 42.1464 48.378 42.4689 48.127C44.4069 46.227 46.2519 44.273 48.2319 42.41C48.0709 42.458 47.8409 42.268 47.9929 42.291C48.1029 42.301 48.2169 42.291 48.3279 42.291C48.3413 42.2736 48.3527 42.2548 48.3619 42.235C48.3571 42.2544 48.35 42.2732 48.3409 42.291H49.3469C49.451 42.3309 49.5629 42.3463 49.6739 42.336C50.5189 42.574 50.2739 44.2 50.2739 44.836V48.808C50.2759 49.712 50.4779 51.083 49.5649 51.642ZM50.1649 10.532C49.9868 10.5344 49.8112 10.5736 49.6489 10.647C49.3802 10.7136 49.0984 10.7065 48.8334 10.6265C48.5683 10.5464 48.3298 10.3963 48.1429 10.192L43.1189 5.171C42.5132 4.80222 42.0542 4.23462 41.8204 3.56511C41.5866 2.8956 41.5924 2.16569 41.8369 1.5C41.7903 1.46515 41.748 1.42486 41.7109 1.38C41.765 1.39231 41.8206 1.39635 41.8759 1.392C41.9049 1.204 41.9649 1.275 41.9849 1.385C52.2699 1.248 50.2239 0.524995 50.1629 10.532H50.1649Z" fill="#262626"/>
<path d="M41.9849 1.38C41.9489 1.38 41.9199 1.385 41.8759 1.387C41.8666 1.42425 41.8536 1.46044 41.8369 1.495C41.9799 1.6 42.0049 1.485 41.9849 1.38Z" fill="#262626"/>
<path d="M48.328 42.291C48.3002 42.335 48.2666 42.375 48.228 42.41C48.2543 42.4002 48.2779 42.3843 48.2969 42.3636C48.3158 42.3429 48.3296 42.318 48.337 42.291H48.328Z" fill="#262626"/>
<path d="M21.0919 27.434C22.2649 28.496 21.9599 30.473 23.8569 30.562C27.7629 30.744 31.7509 30.633 35.6569 30.562C36.1674 30.6019 36.6751 30.4556 37.086 30.15C37.4969 29.8445 37.7832 29.4004 37.8919 28.9C40.8109 23.594 42.2589 30.506 41.7359 18.849C41.7194 18.4895 41.5807 18.1464 41.3427 17.8765C41.1046 17.6066 40.7815 17.4261 40.4269 17.365C39.8117 17.1969 39.2509 16.8718 38.7993 16.4216C38.3477 15.9714 38.0209 15.4116 37.8509 14.797C37.0729 12.275 31.8009 13.849 29.6199 13.441C27.4199 13.591 24.9499 12.941 22.8809 13.796C22.0579 14.37 22.1049 15.53 21.4949 16.28C20.5389 17.456 18.3949 17.237 18.2639 19.029C18.1494 21.0193 18.1494 23.0146 18.2639 25.005C18.3399 26.757 20.0249 26.468 21.0919 27.434ZM19.7359 19.234C19.7689 18.746 19.7519 18.622 20.2769 18.369C21.0052 18.1059 21.6705 17.6936 22.2302 17.1583C22.7899 16.6231 23.2315 15.9769 23.5269 15.261C23.8919 14.394 23.9099 14.561 24.7419 14.561H34.6809C35.5209 14.561 36.0419 14.314 36.4019 15.181C36.6726 16.0279 37.1471 16.7954 37.7839 17.416C38.3529 17.916 40.1199 18.374 40.2639 19.059C40.2509 21.059 40.2819 23.074 40.2639 25.066C40.1269 25.74 39.2639 25.751 38.7209 26.051C37.3209 26.683 36.7129 28.176 36.1509 29.437C32.1389 29.455 27.9639 29.45 23.9689 29.437C23.5139 29.23 23.2629 27.837 22.9409 27.381C22.4612 26.7088 21.8098 26.1776 21.0549 25.843C20.5219 25.604 19.8799 25.534 19.7359 24.908C19.7069 23.034 19.7479 21.118 19.7359 19.231V19.234Z" fill="#262626"/>
<path d="M41.4719 54.712C35.9819 54.42 31.4579 55.505 40.5279 55.288C40.7939 55.374 42.2469 54.881 41.4719 54.712Z" fill="#262626"/>
<path d="M32.2828 54.593H16.2828C16.0058 54.593 15.4508 54.693 15.3258 54.987C15.2008 55.281 15.4258 55.407 15.7168 55.407H29.7348C30.6658 55.275 31.9678 55.759 32.6738 55.013C32.7998 54.722 32.5698 54.593 32.2828 54.593Z" fill="#262626"/>
</svg>
