<svg width="21" height="19" viewBox="0 0 21 19" fill="none" xmlns="http://www.w3.org/2000/svg">
<path d="M20.102 1.32964C19.9006 0.834544 19.6053 0.576807 19.0458 0.187216C18.5566 -0.153061 17.808 0.00227883 17.4055 0.398075C15.3226 2.4458 13.3284 4.58427 11.4995 6.86186C10.6104 7.9689 9.32103 9.29621 8.53665 10.6994C8.15845 10.3873 7.7849 10.0753 7.44025 9.75474C6.28989 8.6845 5.0226 7.38764 3.58342 6.69773C2.39357 6.12741 1.49513 6.64608 0.740415 7.63168C0.517627 7.92279 0.257221 8.40757 0.259042 8.82695C-0.0443026 9.14918 -0.127974 9.67158 0.264361 10.1524C2.8033 13.2626 5.94725 15.6882 9.27958 17.8982C9.72377 18.1928 10.5662 18.1322 10.9134 17.6882C14.4883 13.1159 17.8896 8.08395 20.8045 3.07599C21.294 2.23475 20.7911 1.53395 20.102 1.32964Z" fill="#3C1C0F"/>
</svg>
